<svg width="35" height="35" viewBox="0 0 35 35" fill="none" xmlns="http://www.w3.org/2000/svg">
<g clip-path="url(#clip0_2595_4844)">
<path d="M30.7522 9.9454C28.8119 9.98238 21.6292 10.543 20.8494 16.7835C20.8258 16.973 20.9946 17.1518 21.2168 17.1723C29.1347 17.9034 30.8468 11.9866 31.1668 10.3557C31.2086 10.1429 31.0041 9.94061 30.7522 9.9454ZM7.39193 9.9454C9.33217 9.98238 16.5149 10.543 17.2947 16.7835C17.3183 16.973 17.1495 17.1518 16.9273 17.1723C9.00945 17.9034 7.29732 11.9866 6.97726 10.3557C6.93542 10.1429 7.13995 9.94061 7.39193 9.9454Z" fill="#B5E245"/>
<path d="M19.2739 0.640784C19.2494 0.601305 19.2152 0.568736 19.1745 0.546153C19.1339 0.52357 19.0882 0.511719 19.0417 0.511719C18.9952 0.511719 18.9495 0.52357 18.9089 0.546153C18.8682 0.568736 18.834 0.601305 18.8095 0.640784C17.7951 2.23903 14.0222 8.94296 19.0335 13.2809H19.05C24.0612 8.94289 20.2883 2.23896 19.2739 0.640784Z" fill="#C6E873"/>
<path d="M11.3696 23.3063L8.23157 25.8086L19.0418 30.9844L29.852 25.8086L26.714 23.3063C22.2439 19.7417 15.8397 19.7417 11.3696 23.3063Z" fill="#CE9875"/>
<path d="M22.4928 25.0385L25.6309 27.5409L25.8701 27.7148L29.852 25.8083L26.7139 23.306C22.5525 19.9875 16.7153 19.7589 12.3224 22.6191C15.8184 21.9008 19.5692 22.7071 22.4928 25.0385Z" fill="#C6865C"/>
<path d="M29.8683 24.8416L26.1803 26.7802C25.209 27.2907 24.1447 27.5745 23.0601 27.6122L23.1077 26.8256C23.018 25.8754 22.324 25.1129 21.4271 24.9791L17.3052 24.4788C16.3543 24.337 15.8792 24.0011 15.0503 23.49C14.2413 22.9911 12.7374 22.3845 11.9228 22.1406C10.4925 21.7123 8.94702 21.9137 7.6447 22.6439L1.83484 25.9015L6.38723 33.1614L8.87059 30.9586C9.06608 30.7852 9.30337 30.6657 9.55909 30.612C9.81481 30.5582 10.0801 30.5719 10.3289 30.6519L14.487 31.9884C14.9426 32.168 15.4346 32.2358 15.9217 32.1861L24.1996 31.3367C24.7152 31.2838 25.2111 31.1003 25.645 30.8018L31.3591 26.871C31.8178 26.4416 31.9028 25.7201 31.5578 25.1855C31.1802 24.6007 30.4254 24.4471 29.8683 24.8416Z" fill="#FFDDCE"/>
<path d="M1.85572 25.8918L1.83459 25.9037L1.87759 25.9723L1.85572 25.8918ZM31.5575 25.1878C31.18 24.6029 30.4252 24.4492 29.8681 24.8438L27.2529 26.2185C27.2529 26.2185 26.994 26.8048 26.7062 27.4273C26.1711 28.5847 25.038 29.3689 24.4704 29.4271L15.8892 30.3076C15.3842 30.3592 14.8742 30.2889 14.4019 30.1027L10.0915 28.7172C9.83357 28.6343 9.55853 28.62 9.29345 28.6758C9.02837 28.7315 8.78239 28.8554 8.57975 29.0351L5.48471 31.7247L6.38699 33.1636L8.87035 30.9608C9.06583 30.7874 9.30313 30.6679 9.55884 30.6142C9.81456 30.5604 10.0799 30.5741 10.3287 30.6541L14.4868 31.9906C14.9423 32.1702 15.4343 32.238 15.9215 32.1883L24.1993 31.3389C24.715 31.286 25.2109 31.1025 25.6448 30.804L31.3589 26.8732C31.8176 26.4439 31.9026 25.7224 31.5575 25.1878Z" fill="#FFCBBE"/>
<path d="M7.49979 33.6688L6.30542 34.3584C5.84768 34.6227 5.26246 34.4658 4.99818 34.0081L0.640956 26.4611C0.376679 26.0034 0.533495 25.4181 0.991229 25.1539L2.1856 24.4643C2.64334 24.2 3.22856 24.3569 3.49284 24.8146L7.85007 32.3616C8.11435 32.8193 7.95746 33.4046 7.49979 33.6688Z" fill="#DD636E"/>
<path d="M31.9884 24.9077C31.4568 24.0838 30.3916 23.8677 29.6022 24.4023L29.1864 24.6209L27.0335 22.904C24.8874 21.1927 22.2903 20.261 19.6515 20.1353C19.7776 19.4493 20.1215 18.5303 21.0022 17.6492C21.2625 17.721 22.2216 17.7447 22.5213 17.7447C24.2774 17.7447 25.832 17.4021 27.1563 16.7216C27.2162 16.6908 27.2694 16.6486 27.313 16.5972C27.3565 16.5459 27.3895 16.4865 27.4101 16.4223C27.4307 16.3582 27.4385 16.2907 27.4329 16.2236C27.4274 16.1565 27.4088 16.0911 27.378 16.0312C27.3472 15.9714 27.3049 15.9181 27.2536 15.8746C27.2022 15.831 27.1428 15.798 27.0787 15.7774C27.0146 15.7568 26.9471 15.7491 26.88 15.7546C26.8129 15.7601 26.7475 15.7788 26.6876 15.8096C25.3999 16.4713 23.8489 16.7726 22.0694 16.7104C25.2825 14.0269 28.8802 11.8984 30.479 11.0016C30.2038 11.9365 29.633 13.3204 28.4883 14.485C28.394 14.5822 28.3419 14.7128 28.3435 14.8482C28.3451 14.9836 28.4003 15.1129 28.4969 15.2078C28.5935 15.3028 28.7237 15.3556 28.8591 15.3548C28.9946 15.3541 29.1242 15.2997 29.2197 15.2037C30.9312 13.4622 31.5033 11.3006 31.6698 10.4522C31.7769 9.90639 31.3102 9.42315 30.7423 9.43047C25.7159 9.52638 20.9707 11.6757 20.3406 16.7176C20.3346 16.7668 20.3332 16.8163 20.3364 16.8657C20.0252 17.169 19.7672 17.4776 19.5538 17.784V13.5186C21.7736 11.4978 22.4741 8.83082 21.9258 5.84181C21.4649 3.32987 20.2204 1.17621 19.7067 0.366972V0.366904C19.4049 -0.108672 18.6955 -0.135743 18.3766 0.366904C17.8628 1.17621 16.6184 3.3298 16.1575 5.84181C15.6105 8.8233 16.3048 11.4929 18.5283 13.5177V17.6972C18.3273 17.4194 18.0892 17.1404 17.8073 16.8657C17.8103 16.8166 17.8094 16.7672 17.8032 16.7176C17.174 11.6833 12.4259 9.52624 7.40146 9.4304C6.82833 9.42486 6.36739 9.90932 6.47396 10.452C7.27335 14.5259 10.3547 17.7457 15.602 17.7457C15.9035 17.7457 16.8826 17.7205 17.1416 17.6491C18.024 18.5309 18.3686 19.4469 18.4944 20.1321C16.4642 20.2168 14.4447 20.7792 12.6212 21.8322C12.4145 21.7587 12.2266 21.6965 12.0696 21.6495C10.5367 21.1903 8.83249 21.3899 7.39367 22.1967L3.70971 24.2623C3.25136 23.7958 2.52306 23.6774 1.92902 24.0205L0.734574 24.7101C0.0328647 25.1153 -0.208444 26.0159 0.196722 26.7177L4.55422 34.2648C4.95959 34.9669 5.85695 35.2096 6.5618 34.8027L7.75618 34.1132C8.44667 33.7145 8.68996 32.8364 8.31159 32.1399L9.21073 31.3423C9.33978 31.2284 9.49619 31.1499 9.66466 31.1144C9.83314 31.079 10.0079 31.0879 10.1719 31.1402L14.3152 32.472C14.8428 32.6762 15.4111 32.7531 15.974 32.6963L24.2518 31.8469C24.8506 31.7855 25.4327 31.5702 25.9355 31.2244C32.0213 27.0355 31.6562 27.2953 31.7094 27.2455C32.3448 26.6508 32.4648 25.6457 31.9884 24.9077ZM29.1709 10.5689C27.3517 11.6279 24.3382 13.5048 21.5696 15.7929C22.6442 11.9758 26.6333 10.8765 29.1709 10.5689ZM16.576 15.7944C13.8106 13.5087 10.8006 11.6332 8.98022 10.5732C12.3991 10.9973 15.6415 12.4616 16.576 15.7944ZM7.663 11.0008C9.26104 11.8971 12.8605 14.0263 16.0748 16.7109C10.1747 16.917 8.26046 13.0493 7.663 11.0008ZM20.9172 6.02692C21.3567 8.42244 20.8976 10.4407 19.5538 12.0439V2.16763C20.0613 3.1561 20.6418 4.52555 20.9172 6.02692ZM17.1661 6.02692C17.4414 4.5265 18.0212 3.15795 18.5285 2.16975V12.0426C17.1855 10.4396 16.7267 8.42183 17.1661 6.02692ZM26.3942 23.7058L28.1952 25.142L25.9416 26.3265C25.2025 26.7151 24.4195 26.9598 23.6073 27.0567L23.6194 26.8568C23.621 26.8304 23.6205 26.804 23.618 26.7777C23.5058 25.5893 22.636 24.6413 21.5026 24.4723C21.498 24.4715 21.4934 24.4709 21.4888 24.4704L17.3741 23.971C16.0706 23.7746 15.8933 23.2033 13.875 22.3278C17.9261 20.3605 22.8343 20.8671 26.3942 23.7058ZM31.0327 26.4734L25.3543 30.3797C24.9929 30.6284 24.5755 30.7829 24.1472 30.8269L15.8694 31.6763C15.3035 31.7344 14.9528 31.6002 14.6438 31.5006L10.4856 30.164C9.81017 29.9471 9.06088 30.1045 8.53028 30.5753L7.78974 31.2322L6.13073 28.3587C6.06225 28.2419 5.95037 28.1569 5.81948 28.1223C5.68859 28.0877 5.54933 28.1063 5.43208 28.174C5.31483 28.2417 5.22912 28.353 5.19365 28.4837C5.15818 28.6143 5.17582 28.7537 5.24274 28.8714L7.40604 32.6183C7.46479 32.7204 7.48066 32.8416 7.45018 32.9554C7.41969 33.0691 7.34533 33.1662 7.24341 33.2252L6.04904 33.9147C5.99852 33.944 5.94274 33.9629 5.88489 33.9706C5.82703 33.9782 5.76824 33.9743 5.71188 33.9592C5.65551 33.9441 5.60268 33.9181 5.55639 33.8825C5.51011 33.847 5.47129 33.8027 5.44214 33.7521L1.08492 26.2051C1.02615 26.103 1.01026 25.9818 1.04075 25.868C1.07124 25.7543 1.14561 25.6572 1.24754 25.5982L2.44192 24.9087C2.49243 24.8795 2.54821 24.8605 2.60607 24.8528C2.66392 24.8452 2.72272 24.849 2.77908 24.8642C2.83545 24.8793 2.88829 24.9053 2.93457 24.9409C2.98085 24.9764 3.01967 25.0207 3.04881 25.0713L4.0418 26.7912C4.11027 26.908 4.22216 26.993 4.35305 27.0276C4.48394 27.0622 4.6232 27.0436 4.74045 26.9759C4.85769 26.9082 4.94341 26.7969 4.97888 26.6663C5.01435 26.5356 4.9967 26.3962 4.92979 26.2785L4.26486 25.1269L7.89535 23.0912C9.09328 22.4194 10.5076 22.2522 11.7756 22.6318C14.9585 23.585 15.3411 24.7043 17.2295 24.986C17.2341 24.9867 17.2387 24.9874 17.2434 24.9878L21.3578 25.4872C22.009 25.5875 22.5121 26.1389 22.5933 26.837L22.5755 27.1301L17.3453 27.4717C17.2108 27.4822 17.0858 27.5452 16.9974 27.6471C16.909 27.7491 16.8644 27.8818 16.8732 28.0164C16.882 28.151 16.9435 28.2768 17.0444 28.3664C17.1453 28.456 17.2774 28.5022 17.4121 28.495C22.9476 27.9949 24.1731 28.4146 26.4188 27.2341C30.3332 25.1748 30.1128 25.2969 30.1647 25.26C30.4813 25.0358 30.9061 25.1215 31.127 25.4637C31.3324 25.782 31.2905 26.2098 31.0327 26.4734Z" fill="black"/>
</g>
<defs>
<clipPath id="clip0_2595_4844">
<rect width="35" height="35" fill="white"/>
</clipPath>
</defs>
</svg>
