<svg width="35" height="35" viewBox="0 0 35 35" fill="none" xmlns="http://www.w3.org/2000/svg">
<g clip-path="url(#clip0_2596_4919)">
<path d="M25.8 19.957C25.836 19.8961 25.8722 19.8473 25.9081 19.8082C27.2786 17.6708 28.0264 15.0555 28.0264 12.3554C28.0264 5.54265 23.3294 0 17.5562 0C11.7831 0 7.08618 5.54265 7.08618 12.3554C7.08618 15.086 7.85105 17.7291 9.2514 19.8792C9.26623 19.8999 9.2812 19.9225 9.2961 19.947C9.34143 20.0156 9.38743 20.0837 9.43398 20.1512C9.95762 20.8306 10.629 20.6737 10.8228 20.6094C10.8409 20.6026 10.8593 20.5959 10.8777 20.5891L10.8779 20.589C11.5695 20.3329 12.3374 20.1175 13.1671 19.9479L14.6173 19.6515L13.5235 18.6542C12.6337 17.8431 12.0546 16.7431 11.8932 15.5568L11.8115 14.9574L11.2084 14.9083C10.2153 14.8276 9.43733 13.9833 9.43733 12.9863C9.43733 11.9927 10.1818 11.1674 11.1691 11.0667L11.8338 10.9988L11.8428 10.4701C12.5128 10.2727 15.4666 9.31786 17.5419 7.28588C18.0309 7.85661 19.8642 9.74333 23.2704 10.4806L23.2791 10.9989L23.9441 11.0668C24.931 11.1676 25.6753 11.9928 25.6753 12.9863C25.6753 13.9833 24.8974 14.8274 23.9044 14.9083L23.3013 14.9574L23.2195 15.557C23.0581 16.7429 22.4792 17.8428 21.5894 18.654L20.4957 19.6513L21.946 19.9476C22.8125 20.1247 23.6119 20.3522 24.328 20.624C24.5901 20.6981 25.2991 20.8002 25.8 19.957Z" fill="#694B4B"/>
<path d="M20.3734 22.3182V19.5829L19.4306 19.829C19.0072 19.9394 18.5715 19.9953 18.1339 19.9952H16.9791C16.5383 19.9952 16.0991 19.9384 15.674 19.8266L14.7298 19.5781V22.3163L11.9216 22.9883L12.5323 25.1681L12.7855 25.3221C13.1645 25.5529 14.1981 26.1232 15.6078 26.4322C16.2708 26.5776 16.9391 26.6513 17.5942 26.6513H17.5945C19.2185 26.6513 20.8079 26.203 22.3182 25.319L22.5809 25.1655L23.1804 23.0256L20.3734 22.3182Z" fill="#FBCB99"/>
<path d="M16.5111 26.4322C15.1014 26.1231 14.0678 25.5529 13.6888 25.3221L13.088 23.1148L15.3894 22.5601V19.9257L14.7298 19.5781V22.3163L11.9216 22.9883L12.5323 25.1681L12.7855 25.3221C13.1645 25.5529 14.1981 26.1232 15.6078 26.4322C16.2708 26.5776 16.9391 26.6513 17.5942 26.6513H17.5945C17.7424 26.6513 17.8899 26.6463 18.0371 26.6389C17.5237 26.6118 17.0133 26.5427 16.5111 26.4322Z" fill="#EDBA89"/>
<path d="M21.2894 25.6402C20.0932 26.1822 18.8415 26.4571 17.5691 26.4571C16.9069 26.4567 16.2469 26.3832 15.6009 26.2379C14.9923 26.1012 14.394 25.9033 13.8225 25.6495L12.7227 25.1612L15.5056 35.0003H19.6072L22.3965 25.1387L21.2894 25.6402Z" fill="#F5F5F7"/>
<path d="M12.7225 25.1621L15.5056 35.0012H16.4087L13.7556 25.6208L12.7225 25.1621Z" fill="#D2D2D7"/>
<path d="M27.1333 24.5463C26.7982 24.3548 26.4192 24.174 26.0232 24.0059L25.8441 23.9314C24.6253 23.4323 23.2862 23.0574 22.5822 22.875L19.1853 35.0022H28.7729C29.8413 35.0022 30.0311 34.1616 30.0605 33.7564V30.1419C30.0606 27.1867 28.4763 25.4021 27.1333 24.5463ZM12.4181 22.8751C11.7141 23.0575 10.375 23.4323 9.15624 23.9314L8.97707 24.006C8.58106 24.174 8.20208 24.3549 7.86705 24.5464C6.52399 25.4022 4.9397 27.1868 4.9397 30.1419V33.7565C4.9693 34.1616 5.15899 35.0022 6.22745 35.0022H15.815L12.4181 22.8751Z" fill="#324A5E"/>
<path d="M6.18177 33.7565V30.1419C6.18177 27.1867 7.76614 25.4021 9.10913 24.5463C9.44416 24.3548 9.82314 24.174 10.2191 24.0059L10.3983 23.9314C11.1112 23.6395 11.8645 23.3905 12.5085 23.1972L12.4183 22.875C11.7143 23.0574 10.3751 23.4323 9.15643 23.9314L8.97726 24.0059C8.58125 24.174 8.20227 24.3548 7.86724 24.5463C6.52418 25.4021 4.93982 27.1867 4.93982 30.1419V33.7564C4.96887 34.1557 5.15419 34.977 6.18177 35.001V33.7565ZM26.0061 35.0022V30.0368C26.0061 29.725 25.7535 29.4723 25.4416 29.4723C25.1298 29.4723 24.8771 29.725 24.8771 30.0368V35.0022H26.0061Z" fill="#283D4C"/>
<path d="M10.0572 35.0006V30.0352C10.0572 29.7234 9.80459 29.4707 9.49274 29.4707C9.18088 29.4707 8.92822 29.7234 8.92822 30.0352V35.0006H10.0572Z" fill="#283D4C"/>
<path d="M24.3317 10.6157C24.1822 10.569 24.0238 10.5582 23.8694 10.584C23.7149 10.6098 23.5686 10.6716 23.4425 10.7644C23.3163 10.8573 23.2138 10.9785 23.1431 11.1183C23.0725 11.2581 23.0357 11.4126 23.0356 11.5692V14.4154C23.0356 14.7328 23.1866 15.0315 23.4425 15.2195C23.5685 15.3124 23.7147 15.3743 23.8692 15.4002C24.0236 15.4261 24.182 15.4153 24.3315 15.3687C24.5229 15.3092 24.711 15.223 24.8904 15.113C24.996 15.0481 25.0886 14.9643 25.1637 14.8658C25.2738 14.8089 25.3725 14.7322 25.4547 14.6394C25.8582 14.183 26.0805 13.5981 26.0805 12.992C26.0805 11.8967 25.3778 10.9417 24.3317 10.6157Z" fill="#FBCB99"/>
<path d="M11.6597 10.7645C11.5335 10.6717 11.3873 10.6099 11.2328 10.5841C11.0784 10.5582 10.92 10.5689 10.7705 10.6155C9.72456 10.9418 9.02148 11.8968 9.02148 12.9919C9.02148 14.0876 9.72456 15.0426 10.7705 15.3687C10.92 15.4153 11.0784 15.4261 11.2328 15.4002C11.3872 15.3743 11.5334 15.3124 11.6596 15.2197C11.7857 15.1269 11.8883 15.0058 11.959 14.8661C12.0297 14.7263 12.0666 14.572 12.0667 14.4154V11.569C12.0667 11.4123 12.0299 11.2579 11.9592 11.1181C11.8885 10.9784 11.7859 10.8572 11.6597 10.7645Z" fill="#EDBA89"/>
<path d="M23.6389 10.6531C23.6389 10.6531 23.6431 10.6325 23.6446 10.5997V10.5499C23.6384 10.4305 23.5859 10.2351 23.3379 10.114L23.0677 10.0492C20.4542 9.42138 18.8897 8.15584 18.1488 7.39917L18.1486 7.39903C17.5184 6.82201 16.865 7.39903 16.865 7.39903L16.8649 7.39896C15.0848 8.94737 12.8774 9.75374 11.9941 10.0328L11.8758 10.0701L11.8755 10.0702C11.5744 10.1692 11.4889 10.3615 11.4681 10.4982V14.8612C11.4681 17.8999 13.9404 20.3721 16.9791 20.3721H18.1339C21.1726 20.3721 23.6446 17.8999 23.6446 14.8612V10.6485L23.6389 10.6531Z" fill="#FBCB99"/>
<path d="M17.9386 7.24716C17.3813 6.94323 16.865 7.39844 16.865 7.39844L16.8649 7.39837C15.0848 8.94678 12.8774 9.75315 11.9941 10.0322L11.8758 10.0695L11.8755 10.0696C11.5744 10.1686 11.4889 10.3609 11.4681 10.4976V14.8606C11.4681 17.8993 13.9404 20.3715 16.9791 20.3715H17.8824C14.8436 20.3715 12.3714 17.8993 12.3714 14.8606V10.8158C12.3714 10.3186 12.7361 10.1012 12.945 10.0169C12.99 10.0026 13.0373 9.98721 13.088 9.97032L13.0884 9.97026H13.0883C14.098 9.63434 16.2262 8.79796 17.9144 7.2691L17.9386 7.24716Z" fill="#EDBA89"/>
<path d="M18.0402 14.7504C18.2477 14.7504 18.4165 14.9193 18.4165 15.1268C18.4165 15.3342 18.2477 15.5031 18.0402 15.5031H17.0786C16.9788 15.503 16.8832 15.4633 16.8126 15.3927C16.7421 15.3222 16.7024 15.2265 16.7023 15.1268V13.2923C16.7023 13.0848 16.8711 12.916 17.0786 12.916C17.2861 12.916 17.4549 13.0849 17.4549 13.2923V14.7504H18.0402Z" fill="#EDBA89"/>
<path d="M9.29616 19.9471C9.34148 20.0157 9.38749 20.0838 9.43404 20.1513C9.97845 20.8578 10.6827 20.66 10.8436 20.6024C10.8552 20.598 10.8664 20.5935 10.8779 20.5891L10.7873 20.4665C9.12875 18.2206 8.21533 15.3401 8.21533 12.3554C8.21533 5.76611 12.6091 0.365381 18.1208 0.0180469C17.9329 0.00615351 17.7447 0.000134948 17.5564 0C11.7832 0 7.0863 5.54265 7.0863 12.3554C7.0863 15.086 7.85118 17.7291 9.25152 19.8792C9.26628 19.8999 9.28126 19.9225 9.29616 19.9471Z" fill="#563B3B"/>
</g>
<defs>
<clipPath id="clip0_2596_4919">
<rect width="35" height="35" fill="white"/>
</clipPath>
</defs>
</svg>
