<svg width="167" height="166" viewBox="0 0 167 166" fill="none" xmlns="http://www.w3.org/2000/svg">
<path d="M83.1531 166C129.077 166 166.306 144.505 166.306 117.989C166.306 91.4737 129.077 69.9785 83.1531 69.9785C37.2289 69.9785 0 91.4737 0 117.989C0 144.505 37.2289 166 83.1531 166Z" fill="#F5F5F5"/>
<path d="M115.879 102.217L143.887 118.385C144.24 118.59 144.64 118.698 145.048 118.698C145.457 118.698 145.857 118.59 146.21 118.385L161.793 109.381C161.898 109.32 161.985 109.233 162.046 109.128C162.107 109.023 162.139 108.903 162.139 108.782C162.139 108.66 162.107 108.541 162.046 108.436C161.985 108.331 161.898 108.243 161.793 108.182L133.792 92.0558C133.44 91.8529 133.041 91.7461 132.634 91.7461C132.228 91.7461 131.829 91.8529 131.476 92.0558L115.882 101.015C115.777 101.076 115.69 101.163 115.629 101.268C115.568 101.374 115.536 101.493 115.535 101.615C115.535 101.736 115.566 101.856 115.627 101.962C115.687 102.068 115.774 102.156 115.879 102.217Z" fill="#E0E0E0"/>
<path d="M93.8392 96.2035L26.47 135.192C25.9214 135.511 25.299 135.68 24.6647 135.683C24.0304 135.686 23.4063 135.523 22.8545 135.211L5.35402 125.306C5.17224 125.202 5.02121 125.051 4.91619 124.87C4.81116 124.689 4.75586 124.483 4.75586 124.273C4.75586 124.063 4.81116 123.857 4.91619 123.676C5.02121 123.495 5.17224 123.344 5.35402 123.24L72.5966 84.4037C73.1437 84.0893 73.763 83.922 74.394 83.918C75.025 83.9141 75.6463 84.0737 76.1973 84.3814L93.8243 94.2598C93.9969 94.3559 94.141 94.4961 94.2418 94.666C94.3426 94.836 94.3965 95.0297 94.398 95.2273C94.3996 95.4249 94.3486 95.6193 94.2504 95.7908C94.1523 95.9623 94.0103 96.1047 93.8392 96.2035Z" fill="#E0E0E0"/>
<path d="M104.622 135.333C114.833 135.333 123.11 130.553 123.11 124.658C123.11 118.762 114.833 113.982 104.622 113.982C94.4122 113.982 86.1353 118.762 86.1353 124.658C86.1353 130.553 94.4122 135.333 104.622 135.333Z" fill="#E0E0E0"/>
<path d="M144.609 130.799C148.169 130.799 151.055 129.131 151.055 127.075C151.055 125.019 148.169 123.352 144.609 123.352C141.05 123.352 138.164 125.019 138.164 127.075C138.164 129.131 141.05 130.799 144.609 130.799Z" fill="#E0E0E0"/>
<path d="M144.817 68.4084L144.825 117.547L160.739 108.35V59.2598L144.817 68.4084Z" fill="#E6E6E6"/>
<path d="M117.789 101.938L144.825 117.547V68.4531L117.796 52.8926L117.789 101.938Z" fill="#EBEBEB"/>
<path d="M117.789 52.8439L144.825 68.4528L160.739 59.2595L133.714 43.6953L117.789 52.8439Z" fill="#F5F5F5"/>
<path d="M120.957 70.8139L141.5 82.677C141.59 82.7284 141.691 82.7554 141.795 82.7553C141.898 82.7551 142 82.7279 142.089 82.6763C142.179 82.6247 142.254 82.5505 142.306 82.4612C142.358 82.3718 142.385 82.2703 142.386 82.1669V71.7448C142.385 71.4874 142.315 71.2349 142.184 71.0132C142.053 70.7914 141.866 70.6083 141.641 70.4826L121.132 58.6642C121.042 58.6126 120.94 58.5857 120.837 58.5859C120.733 58.5862 120.631 58.6138 120.541 58.6658C120.451 58.7178 120.377 58.7926 120.325 58.8825C120.273 58.9723 120.246 59.0743 120.246 59.178V69.5517C120.244 69.8059 120.308 70.0563 120.433 70.2778C120.558 70.4994 120.739 70.6842 120.957 70.8139Z" fill="#FAFAFA"/>
<path d="M133.118 68.2018C133.047 68.2012 132.978 68.1819 132.917 68.1459L129.29 66.0608C129.207 66.002 129.148 65.9142 129.126 65.8146C129.104 65.7149 129.12 65.6107 129.171 65.5222C129.222 65.4337 129.304 65.3673 129.401 65.3361C129.498 65.3048 129.603 65.311 129.696 65.3533L133.323 67.4422C133.395 67.4893 133.45 67.5579 133.48 67.6382C133.51 67.7185 133.514 67.8063 133.491 67.889C133.469 67.9718 133.42 68.0452 133.353 68.0987C133.286 68.1522 133.204 68.1831 133.118 68.1869V68.2018Z" fill="#E0E0E0"/>
<path d="M120.957 85.3656L141.5 97.225C141.59 97.2764 141.691 97.3034 141.795 97.3032C141.898 97.3031 142 97.2759 142.089 97.2243C142.179 97.1727 142.254 97.0985 142.306 97.0091C142.358 96.9198 142.385 96.8183 142.386 96.7149V86.2891C142.384 86.0317 142.314 85.7794 142.184 85.5577C142.053 85.336 141.866 85.1529 141.641 85.0268L121.132 73.2345C121.043 73.1831 120.941 73.1561 120.837 73.1563C120.734 73.1564 120.632 73.1836 120.543 73.2352C120.453 73.2868 120.379 73.361 120.327 73.4504C120.274 73.5397 120.247 73.6412 120.246 73.7446V84.1183C120.247 84.3699 120.313 84.6171 120.437 84.8357C120.562 85.0544 120.741 85.2369 120.957 85.3656Z" fill="#FAFAFA"/>
<path d="M133.118 82.7526C133.048 82.7516 132.979 82.7338 132.917 82.7004L129.29 80.6115C129.207 80.5528 129.148 80.465 129.126 80.3653C129.104 80.2657 129.12 80.1615 129.171 80.073C129.222 79.9845 129.304 79.9181 129.401 79.8869C129.498 79.8556 129.603 79.8618 129.696 79.9041L133.323 81.993C133.395 82.0401 133.45 82.1087 133.48 82.189C133.51 82.2693 133.514 82.3571 133.491 82.4398C133.469 82.5225 133.42 82.5959 133.353 82.6495C133.286 82.703 133.204 82.7338 133.118 82.7377V82.7526Z" fill="#E0E0E0"/>
<path d="M120.957 99.9132L141.5 111.773C141.59 111.824 141.691 111.851 141.795 111.851C141.898 111.851 142 111.823 142.089 111.772C142.179 111.72 142.254 111.646 142.306 111.557C142.358 111.467 142.385 111.366 142.386 111.262V100.837C142.384 100.579 142.314 100.327 142.184 100.105C142.053 99.8836 141.866 99.7004 141.641 99.5744L121.132 87.756C121.043 87.7046 120.941 87.6776 120.838 87.6777C120.734 87.6779 120.633 87.7051 120.543 87.7567C120.453 87.8083 120.379 87.8825 120.327 87.9718C120.275 88.0612 120.247 88.1627 120.246 88.2661V98.6435C120.243 98.8989 120.307 99.1507 120.432 99.3736C120.557 99.5965 120.738 99.7826 120.957 99.9132Z" fill="#FAFAFA"/>
<path d="M133.119 97.2982C133.048 97.2991 132.979 97.2811 132.917 97.2461L129.291 95.1572C129.245 95.1306 129.204 95.0951 129.171 95.0528C129.139 95.0105 129.115 94.9622 129.101 94.9107C129.087 94.8591 129.084 94.8054 129.091 94.7525C129.098 94.6996 129.115 94.6486 129.142 94.6024C129.168 94.5561 129.204 94.5155 129.246 94.4831C129.289 94.4507 129.337 94.427 129.389 94.4135C129.44 94.4 129.494 94.3969 129.547 94.4044C129.6 94.4119 129.651 94.4298 129.697 94.4572L133.323 96.5423C133.37 96.5689 133.41 96.6044 133.443 96.6467C133.475 96.689 133.499 96.7373 133.513 96.7888C133.527 96.8404 133.53 96.8941 133.523 96.947C133.516 96.9999 133.499 97.0509 133.472 97.0971C133.437 97.1593 133.385 97.2108 133.323 97.2462C133.261 97.2816 133.19 97.2996 133.119 97.2982Z" fill="#E0E0E0"/>
<path d="M134.69 18.9258V32.0585L146.065 38.6231V25.4903L134.69 18.9258Z" fill="#FAFAFA"/>
<path d="M135.922 19.6333L146.08 25.4903V37.2007L135.937 31.3474V19.6333M135.319 18.5684L134.705 18.9407V32.0735L146.08 38.6231L146.694 38.2508V25.1366L135.304 18.5684H135.319Z" fill="#E0E0E0"/>
<path d="M135.304 19.9868L145.447 25.8439V37.5542L135.304 31.6972V19.9868ZM134.69 18.9219V32.0546L146.08 38.6229V25.4901L134.69 18.9256V18.9219Z" fill="#EBEBEB"/>
<path d="M136.358 29.0523L144.963 34.0194L142.42 27.4065L140.662 29.4954L138.86 26.9336L136.358 29.0523Z" fill="#E0E0E0"/>
<path d="M139.344 24.9265C139.359 25.1989 139.438 25.464 139.574 25.7002C139.711 25.9364 139.901 26.137 140.13 26.2856C140.562 26.5351 140.916 26.3303 140.916 25.8313C140.9 25.559 140.821 25.2942 140.685 25.0581C140.548 24.822 140.358 24.6213 140.13 24.4722C139.694 24.2228 139.344 24.4238 139.344 24.9265Z" fill="#E0E0E0"/>
<path d="M149.472 34.8203V45.2833L158.531 50.5148V40.0518L149.472 34.8203Z" fill="#FAFAFA"/>
<path d="M150.451 35.3909L158.531 40.0527V49.4024L150.451 44.7369V35.4281M149.96 34.5754L149.472 34.8584V45.3214L158.531 50.5194L159.023 50.2365V39.7734L149.96 34.5605V34.5754Z" fill="#E0E0E0"/>
<path d="M149.96 35.673L158.04 40.3348V49.6659L149.96 45.0003V35.673ZM149.472 34.8203V45.2833L158.531 50.5186V40.0555L149.472 34.8427V34.8203Z" fill="#EBEBEB"/>
<path d="M150.802 42.8918L157.653 46.8499L155.631 41.5812L154.227 43.2493L152.794 41.2051L150.802 42.8918Z" fill="#E0E0E0"/>
<path d="M153.177 39.6056C153.189 39.8226 153.252 40.0338 153.36 40.222C153.469 40.4102 153.62 40.5703 153.802 40.6891C154.149 40.8865 154.428 40.7264 154.428 40.3168C154.417 40.0996 154.354 39.8882 154.245 39.6999C154.136 39.5116 153.985 39.3517 153.802 39.2332C153.456 39.0433 153.177 39.2072 153.177 39.6056Z" fill="#E0E0E0"/>
<path d="M144.989 117.589C144.989 117.589 141.027 113.72 143.284 107.241C144.546 103.611 148.731 100.945 151.103 100.691C150.314 101.629 149.685 102.691 149.241 103.834L146.24 105.83L148.999 104.966L148.411 107.327C148.411 107.327 145.845 108.879 145.466 109.218L148.232 108.496C148.232 108.496 148.031 115.183 144.989 117.589Z" fill="#E1703B"/>
<path opacity="0.4" d="M144.989 117.589C144.989 117.589 141.027 113.72 143.284 107.241C144.546 103.611 148.731 100.945 151.103 100.691C150.314 101.629 149.685 102.691 149.241 103.834L146.24 105.83L148.999 104.966L148.411 107.327C148.411 107.327 145.845 108.879 145.466 109.218L148.232 108.496C148.232 108.496 148.031 115.183 144.989 117.589Z" fill="black"/>
<path d="M144.989 117.588C144.989 117.588 142.937 109.493 145.972 104.771C145.972 104.771 142.416 108.938 144.989 117.588Z" fill="white"/>
<path d="M149.521 118.683L144.68 118.623H144.632L139.791 118.683C139.791 118.683 139.735 124.64 141.575 127.083C142.085 127.731 143.273 128.2 144.662 128.2C146.05 128.2 147.246 127.742 147.752 127.083C149.577 124.648 149.521 118.683 149.521 118.683Z" fill="#37474F"/>
<path d="M149.521 118.685C149.521 120.129 147.343 121.291 144.651 121.291C141.959 121.291 139.78 120.118 139.78 118.685C139.78 117.251 141.962 116.078 144.651 116.078C147.339 116.078 149.521 117.24 149.521 118.685Z" fill="#455A64"/>
<path d="M144.65 117.991C146.326 117.991 147.745 118.528 148.247 119.272C148.37 119.1 148.437 118.895 148.441 118.684C148.441 117.653 146.743 116.822 144.65 116.822C142.558 116.822 140.86 117.66 140.86 118.684C140.863 118.896 140.932 119.101 141.057 119.272C141.556 118.528 142.975 117.991 144.65 117.991Z" fill="#263238"/>
<path d="M144.651 117.99C142.975 117.99 141.557 118.526 141.058 119.271C141.557 120.016 142.975 120.556 144.651 120.556C146.326 120.556 147.745 120.016 148.248 119.271C147.745 118.526 146.326 117.99 144.651 117.99Z" fill="#E0E0E0"/>
<path d="M144.71 119.595C144.71 119.595 142.848 119.524 141.225 117.03C140.558 116.002 140.238 115.462 140.238 115.462L142.845 115.265L139.914 114.52L138.529 112.401L140.961 112.219C139.958 111.869 138.914 111.653 137.855 111.575C137.855 111.575 135.621 107.613 134.955 107.047C136.657 107.151 138.322 107.595 139.849 108.354C141.376 109.114 142.736 110.172 143.846 111.467C147.521 115.827 145.258 119.707 144.71 119.595Z" fill="#E1703B"/>
<path d="M144.71 119.596C144.71 119.596 145.886 112.522 138.38 108.27C138.391 108.27 146.169 112.008 144.71 119.596Z" fill="white"/>
<path d="M144.71 119.594C144.71 119.594 146.411 119.706 148.098 117.609C148.794 116.742 149.133 116.284 149.133 116.284L146.791 115.863L149.506 115.491L150.954 113.707L148.776 113.316C149.713 113.095 150.676 112.998 151.639 113.029C151.639 113.029 154.037 109.678 154.681 109.217C153.143 109.148 151.606 109.388 150.161 109.923C148.716 110.457 147.393 111.276 146.27 112.329C142.532 115.93 144.218 119.642 144.71 119.594Z" fill="#E1703B"/>
<path opacity="0.2" d="M144.71 119.594C144.71 119.594 146.411 119.706 148.098 117.609C148.794 116.742 149.133 116.284 149.133 116.284L146.791 115.863L149.506 115.491L150.954 113.707L148.776 113.316C149.713 113.095 150.676 112.998 151.639 113.029C151.639 113.029 154.037 109.678 154.681 109.217C153.143 109.148 151.606 109.388 150.161 109.923C148.716 110.457 147.393 111.276 146.27 112.329C142.532 115.93 144.218 119.642 144.71 119.594Z" fill="black"/>
<path d="M144.71 119.598C144.71 119.598 144.315 113.108 151.479 109.973C151.479 109.973 144.111 112.613 144.71 119.598Z" fill="white"/>
<path d="M70.7874 29.2407L69.0932 28.5518L68.9219 28.4811H68.9033C68.5996 28.3714 68.2755 28.3296 67.9539 28.3585C67.6322 28.3875 67.3208 28.4865 67.0416 28.6486L8.90291 62.2048C7.68111 62.9089 6.66644 63.9225 5.96111 65.1436C5.25578 66.3647 4.8847 67.7501 4.88525 69.1603V119.777C4.88555 120.315 5.02746 120.844 5.29671 121.31C5.56596 121.775 5.95307 122.162 6.41913 122.431C6.88519 122.699 7.41376 122.841 7.95172 122.84C8.48968 122.84 9.01807 122.698 9.48377 122.429L67.6783 88.8315C68.5086 88.3517 69.198 87.6617 69.6771 86.8309C70.1562 86.0002 70.4081 85.0579 70.4076 84.0989V30.5997C70.4087 30.2166 70.3112 29.8396 70.1246 29.505L70.7874 29.2407Z" fill="#E1703B"/>
<path opacity="0.3" d="M70.7874 29.2407L69.0932 28.5518L68.9219 28.4811H68.9033C68.5996 28.3714 68.2755 28.3296 67.9539 28.3585C67.6322 28.3875 67.3208 28.4865 67.0416 28.6486L8.90291 62.2048C7.68111 62.9089 6.66644 63.9225 5.96111 65.1436C5.25578 66.3647 4.8847 67.7501 4.88525 69.1603V119.777C4.88555 120.315 5.02746 120.844 5.29671 121.31C5.56596 121.775 5.95307 122.162 6.41913 122.431C6.88519 122.699 7.41376 122.841 7.95172 122.84C8.48968 122.84 9.01807 122.698 9.48377 122.429L67.6783 88.8315C68.5086 88.3517 69.198 87.6617 69.6771 86.8309C70.1562 86.0002 70.4081 85.0579 70.4076 84.0989V30.5997C70.4087 30.2166 70.3112 29.8396 70.1246 29.505L70.7874 29.2407Z" fill="black"/>
<path d="M71.9494 31.2097V84.7275C71.9501 85.6865 71.6977 86.6287 71.2179 87.459C70.738 88.2892 70.0476 88.9782 69.2164 89.4564L11.0219 123.057C10.5557 123.325 10.0272 123.466 9.48938 123.466C8.95154 123.466 8.42325 123.324 7.95746 123.055C7.49168 122.786 7.10476 122.4 6.8355 121.934C6.56625 121.468 6.42411 120.94 6.42334 120.402V69.7628C6.42366 68.3751 6.78418 67.0113 7.46964 65.8047C7.98882 64.9098 8.73844 64.1705 9.64044 63.6637L69.7488 28.957C70.3318 28.9752 70.8852 29.2177 71.2938 29.6339C71.7024 30.0501 71.9346 30.6079 71.942 31.1911L71.9494 31.2097Z" fill="#E1703B"/>
<path opacity="0.1" d="M71.9494 31.2097V84.7275C71.9501 85.6865 71.6977 86.6287 71.2179 87.459C70.738 88.2892 70.0476 88.9782 69.2164 89.4564L11.0219 123.057C10.5557 123.325 10.0272 123.466 9.48938 123.466C8.95154 123.466 8.42325 123.324 7.95746 123.055C7.49168 122.786 7.10476 122.4 6.8355 121.934C6.56625 121.468 6.42411 120.94 6.42334 120.402V69.7628C6.42366 68.3751 6.78418 67.0113 7.46964 65.8047C7.98882 64.9098 8.73844 64.1705 9.64044 63.6637L69.7488 28.957C70.3318 28.9752 70.8852 29.2177 71.2938 29.6339C71.7024 30.0501 71.9346 30.6079 71.942 31.1911L71.9494 31.2097Z" fill="black"/>
<path d="M69.2163 89.4559L11.0218 123.057C10.5713 123.32 10.0605 123.463 9.53872 123.472C9.01691 123.48 8.50174 123.354 8.04297 123.105L42.7906 70.8086L71.9493 84.7233C71.9495 85.6827 71.697 86.6252 71.2172 87.4559C70.7374 88.2867 70.0473 88.9765 69.2163 89.4559Z" fill="#E1703B"/>
<path opacity="0.2" d="M69.2163 89.4559L11.0218 123.057C10.5713 123.32 10.0605 123.463 9.53872 123.472C9.01691 123.48 8.50174 123.354 8.04297 123.105L42.7906 70.8086L71.9493 84.7233C71.9495 85.6827 71.697 86.6252 71.2172 87.4559C70.7374 88.2867 70.0473 88.9765 69.2163 89.4559Z" fill="black"/>
<path d="M70.9697 29.3554L47.2399 78.9934C46.7725 79.9686 46.1088 80.8369 45.2904 81.5437C44.4719 82.2506 43.5163 82.7809 42.4835 83.1015C41.4506 83.422 40.3627 83.5258 39.2878 83.4065C38.213 83.2871 37.1744 82.9471 36.237 82.4078L7.46924 65.8159C7.96028 64.944 8.67658 64.2199 9.54323 63.7196L69.7484 28.957C70.1858 28.9674 70.6104 29.1059 70.9697 29.3554Z" fill="#E1703B"/>
<path d="M13.4419 49.8808L30.4881 40.0359V27.834L18.1 34.6629C16.689 35.4395 15.5124 36.5807 14.6931 37.9672C13.8737 39.3538 13.4416 40.9349 13.4419 42.5455V49.8808Z" fill="#E1703B"/>
<path opacity="0.5" d="M13.4419 49.8808L30.4881 40.0359V27.834L18.1 34.6629C16.689 35.4395 15.5124 36.5807 14.6931 37.9672C13.8737 39.3538 13.4416 40.9349 13.4419 42.5455V49.8808Z" fill="white"/>
<path d="M83.8979 2.62472L82.3377 1.74226C80.3563 0.59653 78.107 -0.00455175 75.8181 2.59527e-05C73.5293 0.00460366 71.2824 0.614678 69.3055 1.76832L20.5538 30.1711C18.3897 31.4314 16.5941 33.2373 15.3462 35.4084C14.0983 37.5796 13.4416 40.0401 13.4419 42.5443C13.4417 41.2578 13.7813 39.9941 14.4262 38.881C15.0712 37.7678 15.9986 36.8447 17.1148 36.205C18.2309 35.5653 19.4962 35.2317 20.7827 35.2379C22.0692 35.2442 23.3312 35.59 24.4411 36.2404L26.4816 37.4357C28.6061 38.6792 30.3682 40.4569 31.593 42.5922C32.8177 44.7275 33.4625 47.1462 33.4631 49.6078V122.045L30.1381 130.486L36.3824 126.684L86.5788 97.559C88.3617 96.5253 89.8413 95.0409 90.8694 93.2547C91.8974 91.4686 92.4376 89.4435 92.4359 87.3827V17.4405C92.4354 14.4394 91.6465 11.4911 90.148 8.89092C88.6496 6.2907 86.4942 4.12983 83.8979 2.62472Z" fill="#E1703B"/>
<path opacity="0.7" d="M83.8979 2.62472L82.3377 1.74226C80.3563 0.59653 78.107 -0.00455175 75.8181 2.59527e-05C73.5293 0.00460366 71.2824 0.614678 69.3055 1.76832L20.5538 30.1711C18.3897 31.4314 16.5941 33.2373 15.3462 35.4084C14.0983 37.5796 13.4416 40.0401 13.4419 42.5443C13.4417 41.2578 13.7813 39.9941 14.4262 38.881C15.0712 37.7678 15.9986 36.8447 17.1148 36.205C18.2309 35.5653 19.4962 35.2317 20.7827 35.2379C22.0692 35.2442 23.3312 35.59 24.4411 36.2404L26.4816 37.4357C28.6061 38.6792 30.3682 40.4569 31.593 42.5922C32.8177 44.7275 33.4625 47.1462 33.4631 49.6078V122.045L30.1381 130.486L36.3824 126.684L86.5788 97.559C88.3617 96.5253 89.8413 95.0409 90.8694 93.2547C91.8974 91.4686 92.4376 89.4435 92.4359 87.3827V17.4405C92.4354 14.4394 91.6465 11.4911 90.148 8.89092C88.6496 6.2907 86.4942 4.12983 83.8979 2.62472Z" fill="white"/>
<path d="M15.4634 123.903C15.4634 123.903 18.9597 129.015 24.5785 130.709C30.6217 132.53 33.4628 128.523 33.4628 123.21V113.6L15.4634 123.903Z" fill="#E1703B"/>
<path opacity="0.5" d="M15.4634 123.903C15.4634 123.903 18.9597 129.015 24.5785 130.709C30.6217 132.53 33.4628 128.523 33.4628 123.21V113.6L15.4634 123.903Z" fill="white"/>
<path d="M44.3248 72.4889C44.204 72.4871 44.0871 72.446 43.9919 72.3717C43.8967 72.2974 43.8283 72.1941 43.7971 72.0774C43.7659 71.9607 43.7737 71.837 43.8192 71.7252C43.8647 71.6133 43.9455 71.5193 44.0492 71.4575L81.2842 49.9506C81.4111 49.8775 81.5618 49.8579 81.7032 49.8959C81.8446 49.934 81.9651 50.0267 82.0382 50.1536C82.1113 50.2805 82.131 50.4312 82.0929 50.5726C82.0548 50.714 81.9622 50.8345 81.8353 50.9076L44.6003 72.4145C44.5163 72.4624 44.4215 72.4881 44.3248 72.4889Z" fill="white"/>
<path d="M44.4156 64.0768C44.2948 64.075 44.178 64.0338 44.0827 63.9596C43.9875 63.8853 43.9191 63.782 43.8879 63.6653C43.8568 63.5486 43.8645 63.4249 43.91 63.3131C43.9555 63.2012 44.0363 63.1072 44.1401 63.0454L81.375 41.5385C81.5019 41.4654 81.6526 41.4458 81.794 41.4838C81.9355 41.5219 82.0559 41.6145 82.129 41.7414C82.2021 41.8683 82.2218 42.0191 82.1837 42.1605C82.1457 42.3019 82.053 42.4224 81.9261 42.4954L44.6911 64.0024C44.6072 64.0503 44.5123 64.076 44.4156 64.0768Z" fill="white"/>
<path d="M44.4156 56.2643C44.2948 56.2625 44.178 56.2213 44.0827 56.1471C43.9875 56.0728 43.9191 55.9695 43.8879 55.8528C43.8568 55.7361 43.8645 55.6124 43.91 55.5006C43.9555 55.3887 44.0363 55.2947 44.1401 55.2329L81.375 33.726C81.5019 33.6529 81.6526 33.6333 81.794 33.6713C81.9355 33.7094 82.0559 33.802 82.129 33.9289C82.2021 34.0558 82.2218 34.2066 82.1837 34.348C82.1457 34.4894 82.053 34.6099 81.9261 34.6829L44.6911 56.1899C44.6072 56.2378 44.5123 56.2635 44.4156 56.2643Z" fill="white"/>
<path d="M44.3244 80.735C44.2033 80.7348 44.0856 80.6947 43.9896 80.6208C43.8936 80.547 43.8246 80.4436 43.7932 80.3267C43.7619 80.2097 43.7699 80.0856 43.8161 79.9737C43.8623 79.8617 43.9441 79.7681 44.0488 79.7073L81.2838 58.1967C81.4107 58.1236 81.5614 58.104 81.7028 58.142C81.8442 58.1801 81.9647 58.2727 82.0378 58.3996C82.1109 58.5265 82.1306 58.6773 82.0925 58.8187C82.0544 58.9601 81.9618 59.0806 81.8349 59.1537L44.5999 80.6792C44.5142 80.7207 44.4195 80.7399 44.3244 80.735Z" fill="white"/>
<path d="M44.3244 88.9795C44.2033 88.9793 44.0856 88.9391 43.9896 88.8653C43.8936 88.7915 43.8246 88.6881 43.7932 88.5711C43.7619 88.4542 43.7699 88.3301 43.8161 88.2182C43.8623 88.1062 43.9441 88.0126 44.0488 87.9518L81.2838 66.4449C81.4097 66.3795 81.556 66.3651 81.6922 66.4048C81.8284 66.4445 81.944 66.5352 82.015 66.6581C82.0861 66.7809 82.107 66.9264 82.0734 67.0642C82.0398 67.2021 81.9544 67.3217 81.8349 67.3981L44.5999 88.905C44.516 88.953 44.4211 88.9786 44.3244 88.9795Z" fill="white"/>
<path d="M44.3244 97.2256C44.2033 97.2254 44.0856 97.1852 43.9896 97.1114C43.8936 97.0376 43.8246 96.9342 43.7932 96.8172C43.7619 96.7003 43.7699 96.5762 43.8161 96.4643C43.8623 96.3523 43.9441 96.2587 44.0488 96.1979L81.2838 74.691C81.4097 74.6256 81.556 74.6112 81.6922 74.6509C81.8284 74.6906 81.944 74.7813 82.015 74.9042C82.0861 75.027 82.107 75.1725 82.0734 75.3103C82.0398 75.4482 81.9544 75.5678 81.8349 75.6442L44.5999 97.1511C44.5166 97.2008 44.4213 97.2265 44.3244 97.2256Z" fill="white"/>
<path d="M44.3244 105.468C44.2033 105.468 44.0856 105.427 43.9896 105.354C43.8936 105.28 43.8246 105.176 43.7932 105.059C43.7619 104.942 43.7699 104.818 43.8161 104.706C43.8623 104.595 43.9441 104.501 44.0488 104.44L81.2838 82.9332C81.4097 82.8678 81.556 82.8534 81.6922 82.8931C81.8284 82.9328 81.944 83.0235 82.015 83.1464C82.0861 83.2692 82.107 83.4147 82.0734 83.5525C82.0398 83.6904 81.9544 83.81 81.8349 83.8864L44.5999 105.393C44.5166 105.443 44.4213 105.469 44.3244 105.468Z" fill="white"/>
<path d="M68.7766 99.5905C68.6799 99.5911 68.5847 99.5659 68.5009 99.5175C68.4171 99.4691 68.3478 99.3991 68.3 99.3149C68.2294 99.1892 68.211 99.0408 68.2485 98.9016C68.2861 98.7623 68.3768 98.6434 68.5011 98.5702L81.2913 91.1754C81.4172 91.11 81.5635 91.0956 81.6997 91.1353C81.8359 91.175 81.9515 91.2657 82.0225 91.3885C82.0936 91.5114 82.1145 91.6569 82.0809 91.7947C82.0473 91.9326 81.9619 92.0522 81.8424 92.1286L69.0522 99.5197C68.9679 99.5666 68.873 99.5909 68.7766 99.5905Z" fill="white"/>
<path d="M117.789 33.4501C122.114 33.4501 125.62 29.9442 125.62 25.6196C125.62 21.2949 122.114 17.7891 117.789 17.7891C113.465 17.7891 109.959 21.2949 109.959 25.6196C109.959 29.9442 113.465 33.4501 117.789 33.4501Z" fill="#E1703B"/>
<path d="M116.393 31.707C116.393 31.707 117.093 34.1943 114.259 36.5029C114.259 36.5029 118.623 36.0635 118.862 31.9155L116.393 31.707Z" fill="#E1703B"/>
<path d="M118.56 26.3427H116.877L116.456 22.3027H118.981L118.56 26.3427ZM117.718 28.9492C117.563 28.9598 117.408 28.939 117.261 28.8881C117.114 28.8371 116.98 28.7571 116.864 28.6528C116.749 28.5486 116.657 28.4221 116.591 28.2811C116.526 28.1401 116.49 27.9874 116.486 27.8321C116.519 27.5286 116.663 27.2481 116.891 27.0443C117.118 26.8406 117.413 26.7279 117.718 26.7279C118.024 26.7279 118.318 26.8406 118.546 27.0443C118.773 27.2481 118.917 27.5286 118.951 27.8321C118.945 27.9867 118.909 28.1386 118.843 28.2788C118.778 28.4189 118.685 28.5445 118.57 28.648C118.455 28.7515 118.32 28.8308 118.174 28.8813C118.028 28.9318 117.873 28.9523 117.718 28.9417V28.9492Z" fill="white"/>
<path d="M102.329 55.8897C101.523 55.8272 100.714 55.9645 99.9733 56.2892C99.2329 56.6139 98.584 57.1161 98.0839 57.7514C96.427 59.9334 92.9194 65.0941 92.9194 65.0941C92.9194 65.0941 91.4524 63.467 90.4917 62.3239C89.5311 61.1808 88.63 60.2126 88.63 60.2126C88.5036 59.5974 88.4091 58.976 88.347 58.3509C88.2651 57.4647 88.1459 56.8615 87.498 56.2546C86.8502 55.6476 86.3549 55.0779 86.3028 54.6162C86.2507 54.1545 85.9304 53.6928 85.5209 54.1657C85.1113 54.6386 85.1485 56.0907 86.0049 57.0588C86.0049 57.0588 84.4746 56.3477 83.7708 55.5136C83.0671 54.6795 82.1585 53.2274 81.7564 53.6295C81.3543 54.0316 80.5835 58.3621 81.7564 59.3265C82.9293 60.2908 85.8299 61.9329 85.8299 61.9329C85.8299 61.9329 89.6204 71.2119 92.2864 71.2119C94.9525 71.2119 99.3611 64.3532 99.3611 64.3532L102.329 55.8897Z" fill="#FFA8A7"/>
<path d="M97.5967 104.331L98.4196 116.92C98.4196 116.92 99.1643 118.253 100.598 118.253L101.901 116.831C101.883 115.147 102.024 113.465 102.322 111.808C102.806 109.265 103.744 105.545 104.016 103.396L97.5967 104.331Z" fill="#FFA8A7"/>
<path d="M98.3373 75.8921C98.3373 75.8921 97.682 80.1257 97.358 84.2439C97.1011 87.528 96.9336 92.0819 96.874 93.7909C96.8597 94.238 96.8697 94.6854 96.9038 95.1314L97.5963 104.332C97.5963 104.332 101.666 106.119 104.023 103.398C104.023 103.398 104.31 100.761 103.9 98.9294C103.66 97.7728 103.69 96.5765 103.986 95.433L106.536 85.1859V75.8027L98.3373 75.8921Z" fill="#37474F"/>
<path d="M100.315 79.4043C100.487 80.1567 100.862 80.8477 101.399 81.4023C101.936 81.9569 102.614 82.354 103.361 82.5506L104.884 91.8222L107.118 83.6975V79.4043H100.315Z" fill="#263238"/>
<path d="M108.231 106.209L110.804 120.4H113.585C113.585 120.4 114.639 108.443 114.583 105.182L108.231 106.209Z" fill="#FFA8A7"/>
<path d="M99.6371 75.7983C99.6371 75.7983 99.0934 81.2756 103.994 81.7559L106.537 98.0686L108.231 106.204C108.231 106.204 112.2 108.792 114.583 105.177C114.583 105.177 114.825 101.081 113.838 98.2585C113.581 97.5253 113.475 96.7476 113.526 95.9722C113.801 91.9732 114.561 80.2405 114.188 77.6415L111.738 74.4355L99.6371 75.7983Z" fill="#37474F"/>
<path d="M108.558 56.4775H111.046L112.71 64.7847L111.615 68.3406C111.384 69.0777 111.437 69.8748 111.764 70.5747C112.509 72.1981 113.89 75.3706 114.192 77.6493C113.496 77.7004 112.798 77.5614 112.175 77.2473C111.551 76.9332 111.025 76.4557 110.651 75.8658C110.651 75.8658 108.562 78.6174 103.48 78.6174C101.015 78.6174 99.0113 76.8041 98.3374 75.8956L99.2496 71.7774C99.3252 71.4429 99.3528 71.0994 99.3316 70.7571C99.2832 69.9045 99.1901 68.1507 99.2124 66.8177C99.2124 66.8177 96.8517 65.8794 97.4586 62.975C98.0656 60.0707 102.329 55.9004 102.329 55.9004L104.157 55.9711L108.558 56.4775Z" fill="#E1703B"/>
<path d="M102.56 40.4655C102.56 40.4655 99.5438 39.4192 98.8066 42.506C98.0693 45.5927 100.341 48.5902 96.9448 49.6178C96.9448 49.6178 98.9481 51.286 100.713 48.1694L102.202 54.4993C102.202 54.4993 102.202 54.8456 101.674 55.11C101.674 55.11 110.238 57.0164 111.887 52.7419C112.115 52.9879 112.27 53.2919 112.335 53.6204C112.401 53.9488 112.375 54.2891 112.26 54.6036C112.26 54.6036 114.788 53.5796 114.077 50.3067C114.077 50.3067 116.076 50.2508 116.553 48.6237C116.553 48.6237 113.354 48.7763 113.373 45.2465C113.395 41.1692 111.25 41.7613 111.25 41.7613C111.25 41.7613 108.625 37.859 102.56 40.4655Z" fill="#455A64"/>
<path d="M104.157 53.2378V55.9597C104.157 55.9597 101.339 59.0948 104.087 59.3443C106.834 59.5938 108.555 56.4772 108.555 56.4772V50.7207L104.157 53.2378Z" fill="#FFA8A7"/>
<path d="M108.51 49.813V49.9693C107.531 53.8418 104.98 54.6833 104.157 54.8806L104.127 48.8895L108.387 48.8672L108.51 49.813Z" fill="#F28F8F"/>
<path d="M104.437 41.2127C102.81 41.3468 99.4288 42.5346 99.3804 46.8203C99.332 51.1061 99.9836 54.3753 102.207 54.5093C104.429 54.6434 109.393 52.6476 109.624 47.0623C109.855 41.4771 106.019 41.0638 104.437 41.2127Z" fill="#FFA8A7"/>
<path d="M102.378 48.5215L102.418 51.0386L100.937 50.6104L102.378 48.5215Z" fill="#F28F8F"/>
<path d="M104.589 48.454C104.591 48.5559 104.563 48.6561 104.508 48.742C104.453 48.8279 104.374 48.8955 104.281 48.9362C104.187 48.9769 104.084 48.9889 103.983 48.9707C103.883 48.9524 103.79 48.9048 103.717 48.8337C103.644 48.7627 103.594 48.6715 103.573 48.5718C103.552 48.4721 103.561 48.3683 103.598 48.2737C103.636 48.1791 103.702 48.098 103.786 48.0405C103.87 47.9831 103.97 47.9521 104.072 47.9513C104.139 47.9498 104.205 47.9617 104.268 47.9862C104.33 48.0108 104.387 48.0475 104.436 48.0943C104.484 48.1411 104.522 48.197 104.548 48.2587C104.575 48.3205 104.589 48.3868 104.589 48.454Z" fill="#263238"/>
<path d="M101.212 48.1449C101.213 48.2122 101.201 48.2792 101.177 48.3419C101.152 48.4046 101.116 48.4618 101.069 48.5103C101.022 48.5587 100.966 48.5975 100.905 48.6242C100.843 48.651 100.776 48.6653 100.709 48.6662C100.607 48.6684 100.507 48.6404 100.421 48.5856C100.336 48.5308 100.268 48.4518 100.227 48.3586C100.186 48.2653 100.174 48.1621 100.192 48.0619C100.21 47.9617 100.257 47.8691 100.328 47.7958C100.399 47.7226 100.489 47.6719 100.589 47.6504C100.688 47.6288 100.792 47.6372 100.887 47.6746C100.981 47.712 101.063 47.7767 101.121 47.8604C101.179 47.9441 101.21 48.0432 101.212 48.1449Z" fill="#263238"/>
<path d="M103.763 51.8528C103.205 51.9952 102.655 52.1692 102.117 52.3741C102.117 52.3741 101.964 51.499 102.69 51.298C102.906 51.2524 103.13 51.2828 103.326 51.3839C103.521 51.4851 103.675 51.6507 103.763 51.8528Z" fill="#F28F8F"/>
<path d="M101.026 46.25L100.032 46.8569C100.032 46.8569 100.404 47.2516 100.799 47.0059C100.908 46.9173 100.989 46.7978 101.029 46.663C101.07 46.5281 101.068 46.3842 101.026 46.25Z" fill="#263238"/>
<path d="M107.05 48.4391C107.05 48.4391 107.013 50.0253 108.052 50.0253H110.089V46.5885C110.089 42.731 107.162 38.7021 100.936 41.8895C100.936 41.8895 100.571 47.255 107.05 48.4391Z" fill="#455A64"/>
<path d="M100.188 49.9397C99.22 49.9397 98.4307 49.2695 98.4307 48.4503C98.4307 47.6312 99.22 46.9609 100.188 46.9609C101.156 46.9609 101.946 47.6312 101.946 48.4503C101.946 49.2695 101.156 49.9397 100.188 49.9397ZM100.188 47.2476C99.3876 47.2476 98.736 47.7838 98.736 48.4392C98.736 49.0945 99.3876 49.6344 100.188 49.6344C100.989 49.6344 101.64 49.0982 101.64 48.4392C101.64 47.7801 100.989 47.2476 100.188 47.2476Z" fill="#E1703B"/>
<path d="M104.511 49.9504C103.428 49.9504 102.542 49.2727 102.542 48.4386C102.542 47.6046 103.428 46.9492 104.511 46.9492C105.595 46.9492 106.481 47.6269 106.481 48.4386C106.481 49.2503 105.598 49.9504 104.511 49.9504ZM104.511 47.2545C103.606 47.2545 102.865 47.787 102.865 48.4386C102.865 49.0902 103.61 49.6264 104.511 49.6264C105.412 49.6264 106.157 49.094 106.157 48.4386C106.157 47.7833 105.42 47.2545 104.511 47.2545Z" fill="#E1703B"/>
<path d="M102.705 48.2773H101.793V48.6013H102.705V48.2773Z" fill="#E1703B"/>
<path d="M108.674 48.2773H106.321V48.6013H108.674V48.2773Z" fill="#E1703B"/>
<path d="M108.044 49.8183C108.032 49.4253 108.108 49.0345 108.268 48.6752C108.346 48.4515 108.487 48.2554 108.675 48.1112C108.863 47.967 109.089 47.8809 109.325 47.8635C110.539 47.8449 110.688 49.0141 110.669 49.4274C110.614 50.5184 109.72 51.6875 108.063 51.7136L108.044 49.8183Z" fill="#FFA8A7"/>
<path d="M111.046 56.4785C111.046 56.4785 108.209 63.2628 112.71 64.7857L113.697 62.6782C113.697 62.6782 121.933 55.1344 123.948 53.4811C125.962 51.8279 123.378 49.3853 120.88 47.0953C118.381 44.8054 115.875 42.5899 115.875 42.5899L114.624 40.3744C114.487 40.1325 114.299 39.9225 114.075 39.7582C113.85 39.5938 113.593 39.479 113.321 39.4212C112.01 39.1494 109.542 38.6765 108.209 38.7547C106.347 38.8552 109.158 41.175 109.631 41.175C110.057 41.1877 110.473 41.3094 110.838 41.5284C111.204 41.7474 111.508 42.0565 111.72 42.4261C112.286 43.4351 112.386 45.2522 114.192 45.1703L118.377 51.422L111.046 56.4785Z" fill="#FFA8A7"/>
<path d="M118.378 51.4219L119.83 53.2799L117.566 51.9841L118.378 51.4219Z" fill="#F28F8F"/>
<path d="M92.9199 65.0978L94.212 66.5909L93.4635 64.3047L92.9199 65.0978Z" fill="#F28F8F"/>
<path opacity="0.2" d="M104.08 66.9525C104.08 66.9525 107.803 67.2541 108.957 63.7168C108.957 63.7168 109.002 68.226 104.08 66.9525Z" fill="black"/>
<path d="M98.0654 117.466C98.0654 117.466 97.5478 115.843 98.3484 115.757C99.1489 115.672 100.564 116.096 100.705 116.521C100.792 116.801 100.827 117.095 100.81 117.388C101.2 117.256 101.57 117.069 101.908 116.833V116.234C101.908 116.234 102.742 116.316 102.805 116.941C102.869 117.567 102.88 118.33 102.906 119.041C102.954 120.479 103.167 121.439 101.532 121.864C100.366 122.157 99.314 122.789 98.5085 123.681C97.9497 124.271 97.2539 124.714 96.4829 124.97C95.7119 125.227 94.8895 125.289 94.0887 125.152C91.6275 124.809 91.7689 122.731 92.6365 122.065C93.4704 121.451 94.362 120.92 95.2988 120.479L98.0654 117.466Z" fill="#E1703B"/>
<path d="M97.187 122.057C97.15 122.058 97.1135 122.048 97.0818 122.029C97.0501 122.01 97.0246 121.982 97.0082 121.949C96.6132 121.313 95.9851 120.857 95.2582 120.679C95.2317 120.673 95.2066 120.662 95.1844 120.647C95.1622 120.631 95.1432 120.612 95.1287 120.589C95.1142 120.566 95.1043 120.54 95.0997 120.514C95.0951 120.487 95.0958 120.46 95.1018 120.433C95.1075 120.407 95.1183 120.383 95.1336 120.361C95.1489 120.339 95.1684 120.321 95.1909 120.306C95.2134 120.292 95.2386 120.283 95.2648 120.278C95.2911 120.274 95.3179 120.275 95.3438 120.281C95.763 120.382 96.1578 120.566 96.505 120.821C96.8522 121.077 97.1448 121.4 97.3657 121.77C97.3826 121.801 97.3912 121.836 97.3905 121.871C97.3898 121.906 97.38 121.94 97.3619 121.97C97.3438 122 97.3182 122.025 97.2875 122.042C97.2568 122.06 97.2221 122.068 97.187 122.068V122.057Z" fill="#FAFAFA"/>
<path d="M98.1291 121.049C98.0921 121.05 98.0556 121.04 98.0239 121.021C97.9922 121.002 97.9667 120.974 97.9503 120.941C97.5553 120.305 96.9272 119.849 96.2003 119.671C96.1476 119.659 96.1016 119.628 96.0723 119.582C96.0431 119.537 96.0328 119.482 96.0439 119.429C96.0492 119.403 96.0597 119.378 96.0748 119.356C96.0899 119.333 96.1094 119.314 96.1319 119.3C96.1545 119.285 96.1797 119.275 96.2062 119.271C96.2326 119.266 96.2598 119.267 96.2859 119.273C96.7054 119.373 97.1004 119.557 97.4476 119.813C97.7949 120.069 98.0874 120.391 98.3078 120.762C98.3331 120.81 98.3386 120.865 98.3233 120.917C98.308 120.968 98.273 121.012 98.2259 121.038C98.1948 121.048 98.1618 121.052 98.1291 121.049Z" fill="#FAFAFA"/>
<path d="M99.0708 120.045C99.034 120.045 98.9979 120.035 98.9663 120.016C98.9348 119.997 98.9091 119.969 98.8921 119.937C98.4951 119.303 97.8677 118.848 97.1421 118.667C97.0901 118.655 97.045 118.622 97.0164 118.577C96.9879 118.532 96.9782 118.477 96.9894 118.425C96.9942 118.399 97.0043 118.374 97.0191 118.352C97.0338 118.33 97.0529 118.311 97.0752 118.296C97.0974 118.281 97.1224 118.271 97.1486 118.267C97.1749 118.262 97.2017 118.263 97.2277 118.269C97.6475 118.37 98.0429 118.553 98.3907 118.809C98.7385 119.065 99.0318 119.388 99.2533 119.758C99.2783 119.806 99.2833 119.862 99.2672 119.914C99.2512 119.965 99.2154 120.008 99.1676 120.034C99.1366 120.045 99.1035 120.049 99.0708 120.045Z" fill="#FAFAFA"/>
<path d="M110.804 120.4C110.774 120.241 110.78 120.077 110.824 119.921C110.867 119.765 110.946 119.621 111.054 119.501C111.162 119.38 111.297 119.287 111.447 119.227C111.598 119.167 111.76 119.143 111.921 119.156C113.224 119.156 114.155 119.193 114.04 120.161V120.854C114.04 120.854 114.04 124.305 114.3 125.422C114.561 126.54 115.201 130.077 112.543 130.594C109.884 131.112 108.916 128.844 109.4 126.696C109.7 125.485 109.882 124.248 109.944 123.002C110.003 122.217 109.702 119.342 110.566 119.156L110.804 120.4Z" fill="#E1703B"/>
<path d="M113.239 124.676C113.205 124.675 113.171 124.665 113.142 124.646C112.467 124.322 111.692 124.275 110.982 124.516C110.958 124.525 110.931 124.529 110.904 124.529C110.878 124.528 110.851 124.522 110.827 124.511C110.803 124.499 110.781 124.484 110.763 124.464C110.745 124.444 110.731 124.421 110.722 124.396C110.712 124.371 110.708 124.344 110.709 124.317C110.709 124.291 110.716 124.264 110.727 124.239C110.738 124.215 110.753 124.193 110.773 124.174C110.793 124.156 110.816 124.142 110.841 124.132C111.248 123.992 111.679 123.934 112.108 123.962C112.538 123.989 112.957 124.102 113.343 124.292C113.39 124.319 113.424 124.364 113.438 124.416C113.452 124.469 113.445 124.524 113.418 124.571C113.4 124.603 113.374 124.63 113.343 124.648C113.311 124.667 113.275 124.676 113.239 124.676Z" fill="#FAFAFA"/>
<path d="M113.38 123.13C113.345 123.129 113.311 123.12 113.28 123.104C112.607 122.778 111.832 122.73 111.124 122.97C111.099 122.984 111.071 122.992 111.042 122.994C111.013 122.996 110.985 122.992 110.958 122.982C110.931 122.973 110.906 122.957 110.886 122.937C110.865 122.916 110.849 122.892 110.839 122.865C110.829 122.838 110.825 122.81 110.827 122.781C110.828 122.752 110.836 122.724 110.85 122.699C110.863 122.674 110.882 122.651 110.905 122.634C110.928 122.617 110.954 122.604 110.982 122.598C111.388 122.456 111.819 122.397 112.248 122.425C112.677 122.452 113.096 122.565 113.481 122.758C113.504 122.771 113.525 122.788 113.541 122.809C113.558 122.83 113.57 122.854 113.578 122.879C113.585 122.905 113.587 122.932 113.584 122.958C113.581 122.985 113.572 123.01 113.559 123.033C113.54 123.064 113.514 123.089 113.482 123.106C113.451 123.123 113.416 123.131 113.38 123.13Z" fill="#FAFAFA"/>
<path d="M113.522 121.605C113.487 121.604 113.453 121.595 113.421 121.579C112.746 121.256 111.972 121.208 111.262 121.445C111.237 121.459 111.208 121.468 111.179 121.47C111.15 121.473 111.121 121.469 111.094 121.459C111.066 121.449 111.042 121.433 111.021 121.412C111 121.392 110.985 121.367 110.974 121.34C110.964 121.312 110.96 121.283 110.963 121.254C110.965 121.225 110.973 121.197 110.988 121.172C111.002 121.146 111.021 121.124 111.045 121.107C111.069 121.09 111.096 121.078 111.124 121.073C111.53 120.931 111.96 120.872 112.39 120.899C112.819 120.927 113.238 121.04 113.623 121.233C113.646 121.246 113.667 121.263 113.683 121.284C113.7 121.305 113.712 121.329 113.719 121.354C113.727 121.38 113.729 121.407 113.726 121.433C113.722 121.46 113.714 121.485 113.701 121.508C113.682 121.539 113.656 121.564 113.624 121.581C113.593 121.598 113.558 121.606 113.522 121.605Z" fill="#FAFAFA"/>
<path d="M94.3679 120.953C93.7644 121.283 93.1857 121.656 92.6365 122.07C91.7689 122.737 91.6275 124.814 94.0887 125.157C95.1249 125.328 96.1885 125.17 97.1308 124.706C97.0152 123.902 96.7025 123.138 96.2205 122.483C95.7385 121.828 95.1021 121.303 94.3679 120.953Z" fill="white"/>
<path d="M101.532 121.544C100.367 121.836 99.3145 122.469 98.509 123.361C97.9502 123.951 97.2544 124.394 96.4834 124.65C95.7124 124.907 94.89 124.969 94.0892 124.832C92.7115 124.642 92.1492 123.904 92.0748 123.175C92.004 123.994 92.5104 124.928 94.0892 125.148C94.89 125.285 95.7124 125.223 96.4834 124.967C97.2544 124.71 97.9502 124.267 98.509 123.677C99.3145 122.785 100.367 122.153 101.532 121.86C102.821 121.529 102.962 120.859 102.94 119.887C102.914 120.687 102.676 121.264 101.532 121.544Z" fill="#37474F"/>
<path d="M114.538 126.782C113.866 126.097 112.952 125.704 111.992 125.688C111.033 125.672 110.106 126.034 109.411 126.696C108.927 128.845 109.895 131.112 112.554 130.595C114.482 130.204 114.68 128.26 114.538 126.782Z" fill="#F5F5F5"/>
<path d="M112.569 130.173C110.431 130.59 109.389 129.205 109.311 127.529C109.221 129.391 110.253 131.044 112.569 130.594C114.285 130.258 114.628 128.672 114.587 127.287C114.531 128.557 114.095 129.871 112.569 130.173Z" fill="#455A64"/>
</svg>
