<svg width="284" height="213" viewBox="0 0 284 213" fill="none" xmlns="http://www.w3.org/2000/svg">
<path d="M284 186.957H0V187.099H284V186.957Z" fill="#EBEBEB"/>
<path d="M255.543 196.096H236.731V196.238H255.543V196.096Z" fill="#EBEBEB"/>
<path d="M188.133 197.639H183.197V197.781H188.133V197.639Z" fill="#EBEBEB"/>
<path d="M236.163 190.822H225.263V190.964H236.163V190.822Z" fill="#EBEBEB"/>
<path d="M54.3288 191.777H29.7969V191.919H54.3288V191.777Z" fill="#EBEBEB"/>
<path d="M62.9856 191.777H59.3901V191.919H62.9856V191.777Z" fill="#EBEBEB"/>
<path d="M127.885 194.176H74.6746V194.318H127.885V194.176Z" fill="#EBEBEB"/>
<path d="M134.616 161.623H24.9407C24.0815 161.621 23.2581 161.279 22.6511 160.671C22.044 160.063 21.7031 159.238 21.7031 158.379V4.20707C21.7106 3.35281 22.0548 2.536 22.661 1.93406C23.2672 1.33211 24.0864 0.993651 24.9407 0.992188H134.616C135.476 0.992188 136.301 1.33389 136.909 1.94212C137.517 2.55036 137.859 3.3753 137.859 4.23547V158.379C137.859 159.239 137.517 160.064 136.909 160.673C136.301 161.281 135.476 161.623 134.616 161.623ZM24.9407 1.10579C24.1192 1.10729 23.3318 1.4347 22.7515 2.01614C22.1711 2.59758 21.8451 3.38554 21.8451 4.20707V158.379C21.8451 159.201 22.1711 159.989 22.7515 160.57C23.3318 161.152 24.1192 161.479 24.9407 161.481H134.616C135.438 161.479 136.226 161.152 136.807 160.571C137.388 159.989 137.716 159.201 137.717 158.379V4.20707C137.716 3.38502 137.388 2.59707 136.807 2.01579C136.226 1.43451 135.438 1.10729 134.616 1.10579H24.9407Z" fill="#EBEBEB"/>
<path d="M257.48 161.623H147.799C146.939 161.621 146.115 161.279 145.507 160.671C144.899 160.063 144.557 159.239 144.556 158.379V4.20707C144.565 3.35229 144.91 2.53549 145.517 1.9337C146.124 1.33191 146.944 0.993635 147.799 0.992188H257.48C258.333 0.995144 259.151 1.33426 259.756 1.93605C260.361 2.53783 260.704 3.35379 260.712 4.20707V158.379C260.712 159.238 260.372 160.061 259.766 160.669C259.16 161.277 258.338 161.62 257.48 161.623ZM147.799 1.10579C146.977 1.10729 146.189 1.43451 145.608 2.01579C145.026 2.59707 144.699 3.38502 144.698 4.20707V158.379C144.699 159.201 145.026 159.989 145.608 160.571C146.189 161.152 146.977 161.479 147.799 161.481H257.48C258.302 161.479 259.09 161.152 259.671 160.571C260.252 159.989 260.58 159.201 260.581 158.379V4.20707C260.58 3.38502 260.252 2.59707 259.671 2.01579C259.09 1.43451 258.302 1.10729 257.48 1.10579H147.799Z" fill="#EBEBEB"/>
<path d="M171.019 126.186L232.823 126.186V14.5054L171.019 14.5054V126.186Z" fill="#E6E6E6"/>
<path d="M168.174 126.186L231.494 126.186V14.5054L168.174 14.5054V126.186Z" fill="#F0F0F0"/>
<path d="M171.019 128.83H232.823V126.183L171.019 126.183V128.83Z" fill="#E6E6E6"/>
<path d="M167.145 128.83H230.466V126.183L167.145 126.183V128.83Z" fill="#F0F0F0"/>
<path d="M227.495 122.192V18.498L172.161 18.498V122.192H227.495Z" fill="#FAFAFA"/>
<path d="M187.815 122.192L203.389 18.498H214.454L198.874 122.192H187.815Z" fill="white"/>
<path d="M189.57 122.192L205.15 18.498H216.209L200.629 122.192H189.57Z" fill="white"/>
<path d="M201.248 122.192L216.828 18.498H221.139L205.565 122.192H201.248Z" fill="white"/>
<path d="M172.672 122.192V18.498H172.166V122.192H172.672Z" fill="#E6E6E6"/>
<path opacity="0.6" d="M167.225 21.5086H229.029L229.392 20.0488H167.594L167.225 21.5086Z" fill="#EBEBEB"/>
<path opacity="0.6" d="M167.225 23.8935H229.029L229.392 22.4395H167.594L167.225 23.8935Z" fill="#EBEBEB"/>
<path opacity="0.6" d="M167.225 26.2861H229.029L229.392 24.832H167.594L167.225 26.2861Z" fill="#EBEBEB"/>
<path opacity="0.6" d="M167.225 28.6766H229.029L229.392 27.2168H167.594L167.225 28.6766Z" fill="#EBEBEB"/>
<path opacity="0.6" d="M167.225 31.0672H229.029L229.392 29.6074H167.594L167.225 31.0672Z" fill="#EBEBEB"/>
<path opacity="0.6" d="M167.225 33.4521H229.029L229.392 31.998H167.594L167.225 33.4521Z" fill="#EBEBEB"/>
<path d="M245.063 7.80859H155.933V9.96131H245.063V7.80859Z" fill="#F0F0F0"/>
<path opacity="0.8" d="M243.451 5.99414H238.765V143.927H243.451V5.99414Z" fill="#FAFAFA"/>
<path opacity="0.8" d="M239.98 5.99414H238.765V143.927H239.98V5.99414Z" fill="#F0F0F0"/>
<path opacity="0.8" d="M238.765 5.99414H234.079V143.927H238.765V5.99414Z" fill="#FAFAFA"/>
<path opacity="0.8" d="M235.294 5.99414H234.079V143.927H235.294V5.99414Z" fill="#F0F0F0"/>
<path opacity="0.8" d="M234.078 5.99414H229.392V143.927H234.078V5.99414Z" fill="#FAFAFA"/>
<path opacity="0.8" d="M171.019 5.99414H166.333V143.927H171.019V5.99414Z" fill="#FAFAFA"/>
<path opacity="0.8" d="M167.549 5.99414H166.333V143.927H167.549V5.99414Z" fill="#F0F0F0"/>
<path opacity="0.8" d="M166.339 5.99414H161.653V143.927H166.339V5.99414Z" fill="#FAFAFA"/>
<path opacity="0.8" d="M162.868 5.99414H161.653V143.927H162.868V5.99414Z" fill="#F0F0F0"/>
<path opacity="0.8" d="M161.653 5.99414H156.967V143.927H161.653V5.99414Z" fill="#FAFAFA"/>
<path d="M48.4733 126.186L110.277 126.186L110.277 14.5054L48.4733 14.5054L48.4733 126.186Z" fill="#E6E6E6"/>
<path d="M45.6215 126.186L108.942 126.186L108.942 14.5054L45.6215 14.5054L45.6215 126.186Z" fill="#F0F0F0"/>
<path d="M48.4733 128.83H110.277V126.183L48.4733 126.183V128.83Z" fill="#E6E6E6"/>
<path d="M44.5937 128.83H107.914V126.183L44.5937 126.183V128.83Z" fill="#F0F0F0"/>
<path d="M104.949 122.192V18.498L49.6149 18.498L49.6149 122.192H104.949Z" fill="#FAFAFA"/>
<path d="M65.2688 122.192L80.8434 18.498H91.908L76.3278 122.192H65.2688Z" fill="white"/>
<path d="M67.0239 122.192L82.5985 18.498H93.6631L78.0829 122.192H67.0239Z" fill="white"/>
<path d="M78.7021 122.192L94.2824 18.498H98.5935L83.019 122.192H78.7021Z" fill="white"/>
<path d="M50.126 122.186L50.126 18.4922H49.6205L49.6205 122.186H50.126Z" fill="#E6E6E6"/>
<path opacity="0.6" d="M44.6787 21.5086H106.483L106.846 20.0488H45.0479L44.6787 21.5086Z" fill="#EBEBEB"/>
<path opacity="0.6" d="M44.6787 23.8935H106.483L106.846 22.4395H45.0479L44.6787 23.8935Z" fill="#EBEBEB"/>
<path opacity="0.6" d="M44.6787 26.2861H106.483L106.846 24.832H45.0479L44.6787 26.2861Z" fill="#EBEBEB"/>
<path opacity="0.6" d="M44.6787 28.6766H106.483L106.846 27.2168H45.0479L44.6787 28.6766Z" fill="#EBEBEB"/>
<path opacity="0.6" d="M44.6787 31.0672H106.483L106.846 29.6074H45.0479L44.6787 31.0672Z" fill="#EBEBEB"/>
<path opacity="0.6" d="M44.6787 33.4521H106.483L106.846 31.998H45.0479L44.6787 33.4521Z" fill="#EBEBEB"/>
<path d="M122.518 7.80859H33.387V9.96131H122.518V7.80859Z" fill="#F0F0F0"/>
<path opacity="0.8" d="M120.905 5.99414H116.219V143.927H120.905V5.99414Z" fill="#FAFAFA"/>
<path opacity="0.8" d="M117.434 5.99414H116.219V143.927H117.434V5.99414Z" fill="#F0F0F0"/>
<path opacity="0.8" d="M116.218 5.99414H111.532V143.927H116.218V5.99414Z" fill="#FAFAFA"/>
<path opacity="0.8" d="M112.748 5.99414H111.532V143.927H112.748V5.99414Z" fill="#F0F0F0"/>
<path opacity="0.8" d="M111.532 5.99414H106.846V143.927H111.532V5.99414Z" fill="#FAFAFA"/>
<path opacity="0.8" d="M48.4731 5.99414H43.7871V143.927H48.4731V5.99414Z" fill="#FAFAFA"/>
<path opacity="0.8" d="M45.0026 5.99414H43.7871V143.927H45.0026V5.99414Z" fill="#F0F0F0"/>
<path opacity="0.8" d="M43.7873 5.99414H39.1013V143.927H43.7873V5.99414Z" fill="#FAFAFA"/>
<path opacity="0.8" d="M40.3168 5.99414H39.1013V143.927H40.3168V5.99414Z" fill="#F0F0F0"/>
<path opacity="0.8" d="M39.1013 5.99414H34.4153V143.927H39.1013V5.99414Z" fill="#FAFAFA"/>
<path d="M213.437 183.098H222.985V135.386H213.437V183.098Z" fill="#F0F0F0"/>
<path d="M138.58 186.957H219.498V183.1H138.58V186.957Z" fill="#F0F0F0"/>
<path d="M213.437 135.387H135.099V183.099H213.437V135.387Z" fill="#F5F5F5"/>
<path d="M206.298 140.441H142.233V156.311H206.298V140.441Z" fill="#F0F0F0"/>
<path d="M206.298 159.947H142.233V175.817H206.298V159.947Z" fill="#F0F0F0"/>
<path d="M166.674 142.628H181.856C182.219 142.628 182.568 142.484 182.824 142.227C183.081 141.971 183.225 141.623 183.225 141.26C183.224 140.897 183.079 140.55 182.823 140.293C182.566 140.037 182.219 139.892 181.856 139.891H166.674C166.49 139.889 166.308 139.924 166.139 139.994C165.969 140.064 165.815 140.167 165.686 140.297C165.557 140.427 165.455 140.582 165.387 140.752C165.318 140.922 165.285 141.105 165.288 141.288C165.295 141.649 165.445 141.993 165.705 142.244C165.964 142.495 166.313 142.633 166.674 142.628Z" fill="#F5F5F5"/>
<path d="M166.674 162.138H181.857C182.219 162.137 182.567 161.992 182.823 161.736C183.08 161.479 183.224 161.132 183.226 160.769C183.226 160.59 183.19 160.412 183.122 160.246C183.053 160.079 182.952 159.929 182.825 159.801C182.698 159.674 182.547 159.573 182.381 159.505C182.215 159.436 182.037 159.4 181.857 159.4H166.674C166.493 159.398 166.313 159.432 166.145 159.5C165.977 159.568 165.824 159.668 165.695 159.795C165.566 159.923 165.464 160.074 165.394 160.242C165.324 160.409 165.288 160.588 165.288 160.769C165.289 160.95 165.326 161.129 165.396 161.296C165.466 161.463 165.568 161.615 165.697 161.742C165.826 161.869 165.978 161.969 166.146 162.037C166.314 162.105 166.493 162.14 166.674 162.138Z" fill="#F5F5F5"/>
<path d="M132.673 135.393H213.431V133.53H132.673V135.393Z" fill="#F0F0F0"/>
<path d="M225.518 133.523H213.431V135.386H225.518V133.523Z" fill="#E6E6E6"/>
<path d="M61.5371 183.792C60.4488 183.789 59.406 183.355 58.6365 182.586C57.867 181.816 57.4334 180.773 57.4304 179.685V139.493C57.4334 138.405 57.867 137.362 58.6365 136.593C59.406 135.823 60.4488 135.39 61.5371 135.387C62.6248 135.39 63.667 135.824 64.4356 136.593C65.2042 137.363 65.6365 138.406 65.638 139.493V179.685C65.6365 180.773 65.2042 181.816 64.4356 182.585C63.667 183.355 62.6248 183.789 61.5371 183.792Z" fill="#F5F5F5"/>
<path d="M63.8829 182.183C63.1487 182.18 62.4454 181.887 61.9262 181.367C61.4071 180.848 61.1141 180.145 61.1111 179.411V139.776C61.1141 139.042 61.4071 138.338 61.9262 137.819C62.4454 137.3 63.1487 137.007 63.8829 137.004C64.6181 137.005 65.3229 137.298 65.8433 137.817C66.3637 138.336 66.6574 139.041 66.6604 139.776V179.399C66.6604 180.137 66.368 180.844 65.8473 181.365C65.3266 181.887 64.6201 182.181 63.8829 182.183Z" fill="#EBEBEB"/>
<path d="M67.4955 183.792C66.4078 183.789 65.3656 183.355 64.597 182.585C63.8284 181.816 63.396 180.773 63.3945 179.685V139.493C63.396 138.406 63.8284 137.363 64.597 136.593C65.3656 135.824 66.4078 135.39 67.4955 135.387C68.5837 135.39 69.6265 135.823 70.396 136.593C71.1655 137.362 71.5991 138.405 71.6021 139.493V179.685C71.5991 180.773 71.1655 181.816 70.396 182.586C69.6265 183.355 68.5837 183.789 67.4955 183.792Z" fill="#F5F5F5"/>
<path d="M69.8639 182.183C69.1292 182.181 68.425 181.889 67.9056 181.369C67.3861 180.85 67.0935 180.145 67.092 179.411V139.776C67.0935 139.041 67.3861 138.337 67.9056 137.817C68.425 137.298 69.1292 137.005 69.8639 137.004C70.5986 137.005 71.3027 137.298 71.8222 137.817C72.3417 138.337 72.6342 139.041 72.6357 139.776V179.399C72.6365 179.764 72.5654 180.126 72.4265 180.463C72.2876 180.8 72.0836 181.107 71.8262 181.365C71.5688 181.624 71.2631 181.829 70.9264 181.969C70.5897 182.109 70.2286 182.182 69.8639 182.183Z" fill="#EBEBEB"/>
<path d="M77.5604 139.493C77.5604 137.225 75.723 135.387 73.4566 135.387C71.1901 135.387 69.3528 137.225 69.3528 139.493V179.685C69.3528 181.953 71.1901 183.792 73.4566 183.792C75.723 183.792 77.5604 181.953 77.5604 179.685V139.493Z" fill="#F5F5F5"/>
<path d="M75.8107 182.183C75.076 182.181 74.3718 181.889 73.8523 181.369C73.3328 180.85 73.0403 180.145 73.0388 179.411V139.776C73.0403 139.041 73.3328 138.337 73.8523 137.817C74.3718 137.298 75.076 137.005 75.8107 137.004C76.5453 137.005 77.2495 137.298 77.769 137.817C78.2885 138.337 78.581 139.041 78.5825 139.776V179.399C78.5833 179.764 78.5121 180.126 78.3732 180.463C78.2344 180.8 78.0304 181.107 77.773 181.365C77.5156 181.624 77.2098 181.829 76.8731 181.969C76.5364 182.109 76.1754 182.182 75.8107 182.183Z" fill="#EBEBEB"/>
<path d="M79.4233 183.792C78.3351 183.789 77.2923 183.355 76.5228 182.586C75.7533 181.816 75.3196 180.773 75.3167 179.685V139.493C75.3196 138.405 75.7533 137.362 76.5228 136.593C77.2923 135.823 78.3351 135.39 79.4233 135.387C80.5115 135.39 81.5543 135.823 82.3238 136.593C83.0933 137.362 83.5269 138.405 83.5299 139.493V179.685C83.5269 180.773 83.0933 181.816 82.3238 182.586C81.5543 183.355 80.5115 183.789 79.4233 183.792Z" fill="#F5F5F5"/>
<path d="M81.7919 182.183C81.0567 182.181 80.352 181.889 79.8316 181.369C79.3112 180.85 79.0174 180.146 79.0144 179.411V139.776C79.0174 139.041 79.3112 138.336 79.8316 137.817C80.352 137.298 81.0567 137.005 81.7919 137.004C82.5261 137.007 83.2294 137.3 83.7486 137.819C84.2678 138.338 84.5608 139.042 84.5638 139.776V179.399C84.5638 180.136 84.2721 180.842 83.7526 181.363C83.2331 181.885 82.5281 182.18 81.7919 182.183Z" fill="#EBEBEB"/>
<path d="M85.3872 183.792C84.2989 183.789 83.2561 183.355 82.4866 182.586C81.7171 181.816 81.2835 180.773 81.2805 179.685V139.493C81.2835 138.405 81.7171 137.362 82.4866 136.593C83.2561 135.823 84.2989 135.39 85.3872 135.387C86.4754 135.39 87.5182 135.823 88.2877 136.593C89.0572 137.362 89.4908 138.405 89.4938 139.493V179.685C89.4908 180.773 89.0572 181.816 88.2877 182.586C87.5182 183.355 86.4754 183.789 85.3872 183.792Z" fill="#F5F5F5"/>
<path d="M87.7387 182.183C87.0035 182.181 86.2987 181.889 85.7783 181.369C85.2579 180.85 84.9642 180.146 84.9612 179.411V139.776C84.9642 139.041 85.2579 138.336 85.7783 137.817C86.2987 137.298 87.0035 137.005 87.7387 137.004C88.4729 137.007 89.1762 137.3 89.6954 137.819C90.2146 138.338 90.5076 139.042 90.5105 139.776V179.399C90.5106 180.136 90.2189 180.842 89.6994 181.363C89.1799 181.885 88.4749 182.18 87.7387 182.183Z" fill="#EBEBEB"/>
<path d="M91.3513 183.792C90.263 183.789 89.2202 183.355 88.4507 182.586C87.6812 181.816 87.2476 180.773 87.2446 179.685V139.493C87.2476 138.405 87.6812 137.362 88.4507 136.593C89.2202 135.823 90.263 135.39 91.3513 135.387C92.439 135.39 93.4812 135.824 94.2498 136.593C95.0184 137.363 95.4507 138.406 95.4522 139.493V179.685C95.4507 180.773 95.0184 181.816 94.2498 182.585C93.4812 183.355 92.439 183.789 91.3513 183.792Z" fill="#F5F5F5"/>
<path d="M93.7201 182.183C92.9859 182.18 92.2826 181.887 91.7634 181.367C91.2442 180.848 90.9512 180.145 90.9482 179.411V139.776C90.9512 139.042 91.2442 138.338 91.7634 137.819C92.2826 137.3 92.9859 137.007 93.7201 137.004C94.4553 137.005 95.16 137.298 95.6804 137.817C96.2008 138.336 96.4946 139.041 96.4976 139.776V179.399C96.4976 180.137 96.2052 180.844 95.6844 181.365C95.1637 181.887 94.4573 182.181 93.7201 182.183Z" fill="#EBEBEB"/>
<path d="M97.3156 183.792C96.2274 183.789 95.1846 183.355 94.4151 182.586C93.6456 181.816 93.212 180.773 93.209 179.685V139.493C93.212 138.405 93.6456 137.362 94.4151 136.593C95.1846 135.823 96.2274 135.39 97.3156 135.387C98.4033 135.39 99.4455 135.824 100.214 136.593C100.983 137.363 101.415 138.406 101.417 139.493V179.685C101.415 180.773 100.983 181.816 100.214 182.585C99.4455 183.355 98.4033 183.789 97.3156 183.792Z" fill="#F5F5F5"/>
<path d="M102.348 176.588H90.3065C89.8046 176.588 89.3977 176.995 89.3977 177.497C89.3977 177.999 89.8046 178.405 90.3065 178.405H102.348C102.85 178.405 103.257 177.999 103.257 177.497C103.257 176.995 102.85 176.588 102.348 176.588Z" fill="#F5F5F5"/>
<path d="M102.348 143.777H90.3119C90.1925 143.777 90.0744 143.753 89.9641 143.707C89.8538 143.662 89.7536 143.595 89.6693 143.51C89.5849 143.426 89.5179 143.326 89.4723 143.216C89.4266 143.105 89.4031 142.987 89.4031 142.868C89.4031 142.748 89.4266 142.63 89.4723 142.52C89.5179 142.41 89.5849 142.31 89.6693 142.225C89.7536 142.141 89.8538 142.074 89.9641 142.028C90.0744 141.982 90.1925 141.959 90.3119 141.959H102.353C102.473 141.959 102.591 141.982 102.701 142.028C102.812 142.074 102.912 142.141 102.996 142.225C103.08 142.31 103.147 142.41 103.193 142.52C103.239 142.63 103.262 142.748 103.262 142.868C103.262 142.988 103.239 143.106 103.193 143.217C103.147 143.328 103.079 143.428 102.994 143.512C102.909 143.597 102.808 143.664 102.697 143.709C102.586 143.754 102.468 143.777 102.348 143.777Z" fill="#F5F5F5"/>
<path d="M142 212.606C202.823 212.606 252.13 209.727 252.13 206.176C252.13 202.625 202.823 199.746 142 199.746C81.1773 199.746 31.8706 202.625 31.8706 206.176C31.8706 209.727 81.1773 212.606 142 212.606Z" fill="#E1703B"/>
<path d="M232.783 110.992H97.0314C96.3043 111 95.5837 110.856 94.915 110.571C94.2462 110.285 93.644 109.864 93.1465 109.334C92.6489 108.804 92.2667 108.176 92.0242 107.491C91.7817 106.805 91.6841 106.077 91.7376 105.352L96.7133 25.2184C96.8279 23.6994 97.5061 22.2782 98.6148 21.2336C99.7235 20.189 101.183 19.5965 102.706 19.5725H238.458C239.185 19.5658 239.906 19.7101 240.575 19.9961C241.243 20.2821 241.845 20.7038 242.343 21.2344C242.84 21.765 243.222 22.393 243.465 23.0787C243.707 23.7645 243.805 24.493 243.751 25.2184L238.776 105.352C238.66 106.87 237.981 108.29 236.872 109.333C235.764 110.377 234.306 110.968 232.783 110.992Z" fill="#E1703B"/>
<path opacity="0.8" d="M232.783 110.992H97.0314C96.3043 111 95.5837 110.856 94.915 110.571C94.2462 110.285 93.644 109.864 93.1465 109.334C92.6489 108.804 92.2667 108.176 92.0242 107.491C91.7817 106.805 91.6841 106.077 91.7376 105.352L96.7133 25.2184C96.8279 23.6994 97.5061 22.2782 98.6148 21.2336C99.7235 20.189 101.183 19.5965 102.706 19.5725H238.458C239.185 19.5658 239.906 19.7101 240.575 19.9961C241.243 20.2821 241.845 20.7038 242.343 21.2344C242.84 21.765 243.222 22.393 243.465 23.0787C243.707 23.7645 243.805 24.493 243.751 25.2184L238.776 105.352C238.66 106.87 237.981 108.29 236.872 109.333C235.764 110.377 234.306 110.968 232.783 110.992Z" fill="white"/>
<path opacity="0.4" d="M114.429 42.6619H98.2641C98.0581 42.6649 97.8537 42.6249 97.664 42.5444C97.4743 42.464 97.3034 42.3449 97.1623 42.1947C97.0212 42.0445 96.913 41.8665 96.8445 41.6722C96.776 41.4778 96.7488 41.2713 96.7646 41.0658L97.2247 33.6818C97.2508 33.2479 97.4418 32.8403 97.7585 32.5425C98.0753 32.2447 98.4939 32.0793 98.9287 32.0801H115.094L114.429 42.6619Z" fill="white"/>
<path d="M238.373 20.9868H120.007C118.863 20.997 117.765 21.4384 116.932 22.2228C116.099 23.0073 115.593 24.077 115.514 25.2184L114.378 43.6046H98.2073C97.7726 43.6038 97.354 43.7692 97.0372 44.067C96.7204 44.3648 96.5294 44.7724 96.5033 45.2064L96.0773 52.136C96.0607 52.3419 96.0873 52.549 96.1554 52.744C96.2235 52.9391 96.3316 53.1178 96.4728 53.2686C96.6139 53.4194 96.7851 53.539 96.9752 53.6198C97.1654 53.7006 97.3703 53.7408 97.5768 53.7377H113.742L110.539 105.352C110.497 105.897 110.569 106.444 110.75 106.959C110.932 107.475 111.219 107.947 111.593 108.345C111.967 108.743 112.42 109.059 112.923 109.272C113.426 109.485 113.968 109.591 114.515 109.583H232.88C234.024 109.573 235.122 109.132 235.955 108.347C236.788 107.563 237.294 106.493 237.373 105.352L242.349 25.2184C242.391 24.6735 242.32 24.1256 242.139 23.6099C241.957 23.0942 241.671 22.622 241.296 22.2236C240.922 21.8253 240.469 21.5095 239.965 21.2965C239.462 21.0835 238.919 20.978 238.373 20.9868Z" fill="white"/>
<path opacity="0.4" d="M113.032 64.8128H96.8897C96.6829 64.8158 96.4777 64.7756 96.2873 64.6949C96.0969 64.6141 95.9254 64.4946 95.7838 64.3439C95.6422 64.1932 95.5335 64.0146 95.4648 63.8196C95.396 63.6245 95.3687 63.4173 95.3845 63.211L95.8162 56.2814C95.8423 55.8475 96.0332 55.4399 96.35 55.1421C96.6668 54.8443 97.0854 54.6789 97.5202 54.6797H113.685L113.032 64.8128Z" fill="white"/>
<path opacity="0.4" d="M112.367 75.889H96.2019C95.9951 75.892 95.79 75.8518 95.5996 75.7711C95.4092 75.6903 95.2377 75.5708 95.0961 75.4201C94.9545 75.2694 94.8458 75.0908 94.777 74.8957C94.7083 74.7007 94.6809 74.4934 94.6967 74.2872L95.1284 67.3519C95.1559 66.919 95.3475 66.5128 95.6641 66.2162C95.9807 65.9196 96.3986 65.755 96.8324 65.7559H112.998L112.367 75.889Z" fill="white"/>
<path opacity="0.4" d="M111.68 86.965H95.5152C95.3087 86.9671 95.1039 86.9263 94.9139 86.8453C94.7239 86.7643 94.5528 86.6447 94.4113 86.4942C94.2699 86.3437 94.1612 86.1654 94.0921 85.9708C94.023 85.7761 93.9951 85.5692 94.01 85.3632L94.4417 78.4279C94.4743 77.9963 94.6673 77.5926 94.9826 77.2961C95.298 76.9997 95.7129 76.832 96.1457 76.8262H112.311L111.68 86.965Z" fill="white"/>
<path opacity="0.4" d="M110.992 98.0369H94.8556C94.6449 98.0442 94.435 98.0066 94.2399 97.9266C94.0449 97.8466 93.869 97.7261 93.724 97.5731C93.579 97.42 93.4682 97.2379 93.3989 97.0388C93.3296 96.8397 93.3034 96.6281 93.322 96.4181L93.7537 89.4885C93.7797 89.0545 93.9707 88.6469 94.2875 88.3491C94.6043 88.0514 95.0229 87.8859 95.4577 87.8867H111.629L110.992 98.0369Z" fill="white"/>
<path opacity="0.2" d="M98.0539 52.4491C97.9637 52.451 97.874 52.4339 97.7909 52.3989C97.7077 52.3639 97.6328 52.3117 97.5712 52.2457C97.5096 52.1798 97.4625 52.1016 97.4331 52.0163C97.4038 51.9309 97.3927 51.8403 97.4007 51.7504L97.7756 45.6672C97.7924 45.4601 97.8853 45.2666 98.0363 45.1239C98.1873 44.9813 98.3858 44.8996 98.5935 44.8947H112.294C112.384 44.8927 112.474 44.9098 112.557 44.9449C112.64 44.9799 112.715 45.0321 112.776 45.098C112.838 45.164 112.885 45.2421 112.914 45.3275C112.944 45.4128 112.955 45.5034 112.947 45.5933L112.572 51.6823C112.554 51.8883 112.46 52.0805 112.31 52.2219C112.159 52.3634 111.961 52.4443 111.754 52.4491H98.0539Z" fill="#E1703B"/>
<path opacity="0.3" d="M143.704 30.5296H124.148C123.798 30.5321 123.451 30.4621 123.129 30.324C122.807 30.1858 122.517 29.9826 122.278 29.7271C122.038 29.4716 121.854 29.1692 121.737 28.8391C121.62 28.509 121.573 28.1582 121.598 27.8089C121.653 27.0778 121.98 26.3939 122.514 25.8915C123.048 25.389 123.75 25.1045 124.483 25.0939H144.028C144.378 25.0906 144.725 25.1599 145.047 25.2974C145.369 25.4348 145.659 25.6375 145.898 25.8926C146.138 26.1477 146.322 26.4497 146.439 26.7795C146.556 27.1093 146.604 27.4598 146.578 27.8089C146.522 28.5381 146.197 29.2204 145.666 29.7232C145.135 30.2261 144.436 30.5135 143.704 30.5296Z" fill="#E1703B"/>
<path d="M236.856 27.8129C236.802 28.545 236.476 29.2303 235.942 29.7339C235.408 30.2375 234.705 30.5228 233.971 30.5336C233.62 30.5369 233.273 30.4675 232.95 30.3296C232.628 30.1918 232.338 29.9886 232.098 29.7329C231.859 29.4772 231.675 29.1745 231.558 28.844C231.441 28.5135 231.394 28.1624 231.42 27.8129C231.474 27.0813 231.801 26.3966 232.335 25.894C232.869 25.3913 233.572 25.1072 234.306 25.0978C234.656 25.0937 235.003 25.1624 235.325 25.2996C235.648 25.4368 235.938 25.6395 236.178 25.8947C236.418 26.15 236.602 26.4523 236.718 26.7825C236.835 27.1127 236.882 27.4636 236.856 27.8129Z" fill="#E1703B"/>
<path opacity="0.4" d="M181.738 76.8061H124.069C123.375 76.8136 122.686 76.6766 122.047 76.4039C121.408 76.1312 120.832 75.7287 120.357 75.2219C119.882 74.7151 119.517 74.1151 119.286 73.4599C119.055 72.8047 118.962 72.1086 119.014 71.4158L120.746 43.385C120.853 41.9345 121.5 40.5766 122.559 39.5797C123.618 38.5828 125.012 38.0192 126.466 38.0004H184.152C184.847 37.992 185.535 38.1283 186.174 38.4004C186.812 38.6726 187.388 39.0746 187.862 39.5811C188.337 40.0875 188.702 40.6873 188.932 41.3421C189.163 41.997 189.255 42.6927 189.202 43.385L187.464 71.4101C187.356 72.8622 186.709 74.2214 185.649 75.2201C184.589 76.2188 183.194 76.7846 181.738 76.8061ZM126.449 38.2389C125.058 38.2579 123.725 38.7975 122.712 39.7512C121.7 40.7049 121.081 42.0034 120.979 43.3907L119.241 71.4158C119.191 72.0783 119.279 72.7441 119.499 73.3708C119.72 73.9975 120.069 74.5714 120.524 75.056C120.978 75.5405 121.529 75.9252 122.14 76.1854C122.752 76.4456 123.411 76.5758 124.075 76.5676H181.755C183.146 76.5486 184.479 76.009 185.492 75.0553C186.505 74.1016 187.123 72.803 187.225 71.4158L188.969 43.385C189.019 42.7227 188.93 42.0572 188.709 41.4309C188.488 40.8046 188.139 40.2311 187.684 39.7467C187.23 39.2623 186.68 38.8777 186.069 38.6171C185.458 38.3566 184.799 38.2259 184.135 38.2332L126.449 38.2389Z" fill="#E1703B"/>
<path d="M142.493 68.7031H141.338L138.724 64.7531V68.7031H137.569V62.9388H138.724L141.338 66.8971V62.9388H142.493V68.7031ZM145.662 68.7773C145.222 68.7773 144.827 68.6811 144.475 68.4887C144.123 68.2908 143.845 68.0132 143.642 67.6558C143.444 67.2985 143.345 66.8861 143.345 66.4188C143.345 65.9515 143.447 65.5392 143.65 65.1819C143.859 64.8245 144.142 64.5496 144.499 64.3572C144.857 64.1593 145.255 64.0604 145.695 64.0604C146.135 64.0604 146.534 64.1593 146.891 64.3572C147.248 64.5496 147.529 64.8245 147.732 65.1819C147.941 65.5392 148.045 65.9515 148.045 66.4188C148.045 66.8861 147.938 67.2985 147.724 67.6558C147.515 68.0132 147.229 68.2908 146.866 68.4887C146.509 68.6811 146.108 68.7773 145.662 68.7773ZM145.662 67.7713C145.871 67.7713 146.066 67.7218 146.248 67.6228C146.435 67.5184 146.583 67.3644 146.693 67.161C146.803 66.9576 146.858 66.7102 146.858 66.4188C146.858 65.9845 146.742 65.6519 146.512 65.421C146.286 65.1846 146.009 65.0664 145.679 65.0664C145.349 65.0664 145.071 65.1846 144.846 65.421C144.626 65.6519 144.516 65.9845 144.516 66.4188C144.516 66.8532 144.623 67.1885 144.838 67.4249C145.057 67.6558 145.332 67.7713 145.662 67.7713ZM152.869 62.9471C153.474 62.9471 154.005 63.0653 154.461 63.3017C154.923 63.5381 155.277 63.8762 155.525 64.316C155.778 64.7503 155.904 65.2561 155.904 65.8333C155.904 66.4106 155.778 66.9164 155.525 67.3507C155.277 67.7795 154.923 68.1121 154.461 68.3485C154.005 68.5849 153.474 68.7031 152.869 68.7031H150.857V62.9471H152.869ZM152.828 67.7218C153.433 67.7218 153.9 67.5569 154.23 67.227C154.56 66.8971 154.725 66.4326 154.725 65.8333C154.725 65.2341 154.56 64.7668 154.23 64.4314C153.9 64.0906 153.433 63.9202 152.828 63.9202H152.012V67.7218H152.828ZM156.471 66.4024C156.471 65.9406 156.562 65.531 156.744 65.1736C156.931 64.8163 157.181 64.5414 157.494 64.349C157.813 64.1566 158.168 64.0604 158.558 64.0604C158.899 64.0604 159.196 64.1291 159.448 64.2665C159.707 64.404 159.913 64.5771 160.067 64.786V64.1346H161.23V68.7031H160.067V68.0352C159.919 68.2496 159.712 68.4282 159.448 68.5712C159.19 68.7086 158.89 68.7773 158.55 68.7773C158.165 68.7773 157.813 68.6784 157.494 68.4805C157.181 68.2826 156.931 68.0049 156.744 67.6476C156.562 67.2847 156.471 66.8697 156.471 66.4024ZM160.067 66.4188C160.067 66.1385 160.012 65.8993 159.902 65.7014C159.792 65.498 159.644 65.3441 159.457 65.2396C159.27 65.1296 159.069 65.0747 158.855 65.0747C158.64 65.0747 158.442 65.1269 158.261 65.2314C158.08 65.3358 157.931 65.4897 157.816 65.6932C157.706 65.8911 157.651 66.1275 157.651 66.4024C157.651 66.6772 157.706 66.9191 157.816 67.128C157.931 67.3315 158.08 67.4881 158.261 67.5981C158.448 67.708 158.646 67.763 158.855 67.763C159.069 67.763 159.27 67.7108 159.457 67.6063C159.644 67.4964 159.792 67.3425 159.902 67.1445C160.012 66.9411 160.067 66.6992 160.067 66.4188ZM163.701 65.0829V67.293C163.701 67.4469 163.737 67.5596 163.809 67.6311C163.886 67.6971 164.012 67.73 164.188 67.73H164.724V68.7031H163.998C163.025 68.7031 162.539 68.2303 162.539 67.2847V65.0829H161.994V64.1346H162.539V63.0048H163.701V64.1346H164.724V65.0829H163.701ZM165.258 66.4024C165.258 65.9406 165.348 65.531 165.53 65.1736C165.717 64.8163 165.967 64.5414 166.28 64.349C166.599 64.1566 166.954 64.0604 167.344 64.0604C167.685 64.0604 167.982 64.1291 168.235 64.2665C168.493 64.404 168.699 64.5771 168.853 64.786V64.1346H170.016V68.7031H168.853V68.0352C168.705 68.2496 168.498 68.4282 168.235 68.5712C167.976 68.7086 167.677 68.7773 167.336 68.7773C166.951 68.7773 166.599 68.6784 166.28 68.4805C165.967 68.2826 165.717 68.0049 165.53 67.6476C165.348 67.2847 165.258 66.8697 165.258 66.4024ZM168.853 66.4188C168.853 66.1385 168.798 65.8993 168.688 65.7014C168.578 65.498 168.43 65.3441 168.243 65.2396C168.056 65.1296 167.855 65.0747 167.641 65.0747C167.426 65.0747 167.228 65.1269 167.047 65.2314C166.866 65.3358 166.717 65.4897 166.602 65.6932C166.492 65.8911 166.437 66.1275 166.437 66.4024C166.437 66.6772 166.492 66.9191 166.602 67.128C166.717 67.3315 166.866 67.4881 167.047 67.5981C167.234 67.708 167.432 67.763 167.641 67.763C167.855 67.763 168.056 67.7108 168.243 67.6063C168.43 67.4964 168.578 67.3425 168.688 67.1445C168.798 66.9411 168.853 66.6992 168.853 66.4188Z" fill="#9A9A9A"/>
<g clip-path="url(#clip0_2717_7683)">
<path d="M156.369 44.5235L156.659 44.0879L156.527 44H156.369V44.5235ZM159.509 46.6173H160.033V46.3367L159.799 46.1818L159.509 46.6173ZM158.462 56.563H150.087V57.6099H158.462V56.563ZM149.564 56.0396V45.5704H148.517V56.0396H149.564ZM150.087 45.0469H156.369V44H150.087V45.0469ZM158.986 46.6173V56.0396H160.033V46.6173H158.986ZM156.079 44.959L159.219 47.0528L159.799 46.1818L156.659 44.0879L156.079 44.959ZM150.087 56.563C149.948 56.563 149.815 56.5079 149.717 56.4097C149.619 56.3115 149.564 56.1784 149.564 56.0396H148.517C148.517 56.456 148.682 56.8555 148.977 57.15C149.271 57.4445 149.671 57.6099 150.087 57.6099V56.563ZM158.462 57.6099C158.879 57.6099 159.278 57.4445 159.573 57.15C159.867 56.8555 160.033 56.456 160.033 56.0396H158.986C158.986 56.1784 158.931 56.3115 158.833 56.4097C158.734 56.5079 158.601 56.563 158.462 56.563V57.6099ZM149.564 45.5704C149.564 45.4315 149.619 45.2984 149.717 45.2002C149.815 45.1021 149.948 45.0469 150.087 45.0469V44C149.671 44 149.271 44.1654 148.977 44.46C148.682 44.7545 148.517 45.1539 148.517 45.5704H149.564ZM146.423 47.6642V58.1334H147.47V47.6642H146.423ZM147.993 59.7038H156.369V58.6568H147.993V59.7038ZM147.993 47.1408H149.04V46.0938H147.993V47.1408ZM157.939 58.1334V57.0865H156.892V58.1334H157.939ZM156.369 59.7038C156.785 59.7038 157.184 59.5383 157.479 59.2438C157.773 58.9493 157.939 58.5499 157.939 58.1334H156.892C156.892 58.2722 156.837 58.4054 156.739 58.5035C156.641 58.6017 156.507 58.6568 156.369 58.6568V59.7038ZM146.423 58.1334C146.423 58.5499 146.588 58.9493 146.883 59.2438C147.177 59.5383 147.577 59.7038 147.993 59.7038V58.6568C147.854 58.6568 147.721 58.6017 147.623 58.5035C147.525 58.4054 147.47 58.2722 147.47 58.1334H146.423ZM147.47 47.6642C147.47 47.5254 147.525 47.3922 147.623 47.2941C147.721 47.1959 147.854 47.1408 147.993 47.1408V46.0938C147.577 46.0938 147.177 46.2593 146.883 46.5538C146.588 46.8483 146.423 47.2477 146.423 47.6642H147.47Z" fill="#9A9A9A"/>
<path d="M151.996 48.8251C151.998 48.7307 152.033 48.6516 152.1 48.5878C152.167 48.5241 152.248 48.4934 152.342 48.4957C152.437 48.4981 152.516 48.5328 152.58 48.5998C152.643 48.6668 152.674 48.7476 152.672 48.842C152.669 48.9328 152.635 49.0083 152.568 49.0684C152.501 49.1321 152.42 49.1628 152.326 49.1605C152.231 49.1581 152.152 49.1234 152.088 49.0564C152.025 48.993 151.994 48.9159 151.996 48.8251ZM154.328 48.8834C154.33 48.789 154.365 48.7099 154.432 48.6462C154.499 48.5824 154.58 48.5517 154.674 48.5541C154.769 48.5564 154.848 48.5911 154.911 48.6582C154.975 48.7252 155.006 48.8059 155.004 48.9003C155.001 48.9912 154.967 49.0666 154.9 49.1267C154.833 49.1905 154.752 49.2212 154.658 49.2188C154.563 49.2164 154.484 49.1817 154.42 49.1147C154.356 49.0513 154.326 48.9742 154.328 48.8834ZM150.958 51.0774C151.308 50.7373 151.749 50.4757 152.281 50.2927C152.812 50.1134 153.383 50.0314 153.994 50.0466C154.618 50.0623 155.199 50.1786 155.735 50.3955C156.275 50.6162 156.716 50.9216 157.059 51.3118L157.046 51.8294L156.997 51.8282C156.625 51.4119 156.174 51.0934 155.641 50.8729C155.112 50.6562 154.559 50.5406 153.982 50.5261C153.419 50.512 152.879 50.5948 152.362 50.7745C151.845 50.9579 151.389 51.2318 150.994 51.5963L150.945 51.595L150.958 51.0774Z" fill="#9A9A9A"/>
</g>
<path d="M148.123 87.3291H118.416C118.35 87.3292 118.284 87.3157 118.223 87.2894C118.162 87.263 118.108 87.2243 118.062 87.1758C118.017 87.1273 117.982 87.07 117.96 87.0074C117.938 86.9449 117.929 86.8784 117.934 86.8122L118.064 84.722C118.077 84.5804 118.142 84.4487 118.248 84.353C118.353 84.2573 118.49 84.2045 118.632 84.2051H148.339L148.123 87.3291Z" fill="#E1703B"/>
<path opacity="0.2" d="M148.123 87.3291H185.611C185.753 87.3297 185.89 87.2769 185.995 87.1812C186.1 87.0855 186.166 86.9538 186.179 86.8122L186.309 84.722C186.314 84.6558 186.305 84.5893 186.283 84.5267C186.261 84.4642 186.226 84.4068 186.18 84.3583C186.135 84.3098 186.08 84.2712 186.019 84.2448C185.958 84.2184 185.893 84.2049 185.826 84.2051H148.338L148.123 87.3291Z" fill="#E1703B"/>
<path d="M168.299 95.5714H117.906C117.839 95.5725 117.773 95.5595 117.712 95.5335C117.65 95.5074 117.595 95.4688 117.55 95.4201C117.504 95.3714 117.47 95.3137 117.448 95.2507C117.426 95.1878 117.417 95.121 117.423 95.0546L117.554 92.97C117.566 92.8284 117.632 92.6967 117.737 92.601C117.842 92.5053 117.98 92.4526 118.122 92.4531H168.515L168.299 95.5714Z" fill="#E1703B"/>
<path opacity="0.2" d="M168.298 95.5715H185.1C185.242 95.5721 185.379 95.5193 185.484 95.4236C185.59 95.3279 185.655 95.1962 185.668 95.0546L185.798 92.9701C185.804 92.9037 185.796 92.8368 185.774 92.7739C185.752 92.7109 185.717 92.6533 185.672 92.6046C185.626 92.5559 185.571 92.5172 185.51 92.4912C185.448 92.4651 185.382 92.4522 185.316 92.4532H168.491L168.298 95.5715Z" fill="#E1703B"/>
<path d="M123.313 103.802H117.394C117.328 103.802 117.262 103.788 117.201 103.762C117.14 103.736 117.085 103.697 117.04 103.648C116.995 103.6 116.96 103.543 116.938 103.48C116.916 103.418 116.907 103.351 116.911 103.285L117.042 101.195C117.055 101.053 117.12 100.921 117.225 100.826C117.331 100.73 117.468 100.677 117.61 100.678H123.529L123.313 103.802Z" fill="#E1703B"/>
<path opacity="0.2" d="M123.313 103.802H184.6C184.742 103.802 184.88 103.75 184.985 103.654C185.09 103.558 185.155 103.427 185.168 103.285L185.299 101.195C185.304 101.128 185.294 101.061 185.272 100.998C185.249 100.935 185.214 100.878 185.168 100.829C185.122 100.78 185.067 100.742 185.005 100.716C184.944 100.69 184.877 100.677 184.81 100.678H123.506L123.313 103.802Z" fill="#E1703B"/>
<path d="M198.101 104.058C198.071 104.058 198.041 104.053 198.013 104.041C197.985 104.03 197.959 104.013 197.939 103.991C197.918 103.969 197.902 103.942 197.892 103.914C197.881 103.885 197.877 103.855 197.88 103.825L201.947 38.3286C201.951 38.2653 201.979 38.206 202.026 38.1628C202.072 38.1195 202.133 38.0956 202.197 38.0957C202.226 38.0956 202.256 38.1017 202.283 38.1136C202.311 38.1255 202.335 38.1429 202.356 38.1648C202.376 38.1867 202.391 38.2126 202.401 38.2407C202.411 38.2689 202.415 38.2988 202.412 38.3286L198.346 103.802C198.346 103.835 198.341 103.867 198.329 103.898C198.317 103.929 198.299 103.957 198.276 103.98C198.254 104.004 198.227 104.023 198.197 104.036C198.167 104.05 198.134 104.057 198.101 104.058Z" fill="#E1703B"/>
<path d="M202.68 55.4858C202.646 55.9069 202.457 56.3005 202.149 56.5902C201.842 56.8799 201.438 57.045 201.015 57.0535C200.813 57.0556 200.613 57.0158 200.427 56.9364C200.241 56.8571 200.074 56.7401 199.936 56.5927C199.797 56.4454 199.691 56.2709 199.624 56.0803C199.556 55.8898 199.529 55.6874 199.544 55.4858C199.578 55.0637 199.768 54.6694 200.077 54.3796C200.385 54.0897 200.791 53.9253 201.214 53.9181C201.416 53.9151 201.617 53.9543 201.803 54.0334C201.989 54.1125 202.156 54.2296 202.294 54.3773C202.432 54.5249 202.538 54.6999 202.604 54.8908C202.671 55.0817 202.696 55.2844 202.68 55.4858Z" fill="white"/>
<path d="M201.004 57.2884C200.771 57.2888 200.542 57.2418 200.328 57.1501C200.115 57.0585 199.923 56.9243 199.763 56.7557C199.604 56.5871 199.48 56.3877 199.401 56.1697C199.321 55.9517 199.286 55.7196 199.3 55.4879C199.335 55.002 199.551 54.547 199.906 54.2127C200.26 53.8783 200.727 53.6889 201.214 53.6816C201.446 53.6812 201.677 53.7284 201.89 53.8204C202.104 53.9124 202.297 54.0471 202.456 54.2163C202.616 54.3855 202.739 54.5857 202.819 54.8044C202.898 55.023 202.932 55.2557 202.918 55.4879C202.882 55.9732 202.666 56.4275 202.311 56.761C201.957 57.0944 201.49 57.2826 201.004 57.2884ZM201.197 54.1531C200.837 54.1579 200.491 54.2977 200.229 54.5449C199.968 54.7921 199.808 55.1286 199.782 55.4879C199.77 55.6589 199.793 55.8307 199.85 55.9924C199.907 56.1541 199.998 56.3021 200.115 56.427C200.233 56.552 200.375 56.6512 200.533 56.7183C200.69 56.7854 200.861 56.819 201.032 56.817C201.391 56.8123 201.736 56.6733 201.997 56.4273C202.259 56.1813 202.419 55.8461 202.446 55.4879C202.46 55.3164 202.437 55.144 202.38 54.9816C202.323 54.8193 202.233 54.6706 202.116 54.545C201.998 54.4194 201.856 54.3197 201.698 54.2522C201.539 54.1848 201.369 54.151 201.197 54.1531Z" fill="#E1703B"/>
<path d="M201.804 69.5968C201.771 70.0179 201.582 70.4115 201.274 70.7012C200.967 70.9908 200.563 71.156 200.14 71.1645C199.938 71.1666 199.738 71.1267 199.552 71.0474C199.366 70.9681 199.199 70.8511 199.06 70.7037C198.922 70.5563 198.816 70.3818 198.749 70.1913C198.681 70.0008 198.654 69.7983 198.669 69.5968C198.7 69.1736 198.888 68.7773 199.196 68.4852C199.503 68.1932 199.909 68.0265 200.333 68.0178C200.537 68.0146 200.738 68.0542 200.926 68.1339C201.113 68.2136 201.281 68.3317 201.42 68.4805C201.558 68.6293 201.664 68.8055 201.73 68.9978C201.797 69.1901 201.822 69.3942 201.804 69.5968Z" fill="white"/>
<path d="M200.129 71.4252C199.897 71.4255 199.667 71.3785 199.454 71.2869C199.241 71.1953 199.048 71.061 198.889 70.8924C198.729 70.7238 198.606 70.5244 198.526 70.3064C198.446 70.0884 198.412 69.8564 198.425 69.6246C198.461 69.1387 198.677 68.6838 199.031 68.3494C199.385 68.0151 199.852 67.8256 200.339 67.8184C200.572 67.8179 200.802 67.8652 201.016 67.9571C201.23 68.0491 201.422 68.1838 201.582 68.353C201.741 68.5223 201.865 68.7224 201.944 68.9411C202.023 69.1598 202.057 69.3924 202.043 69.6246C202.008 70.1099 201.791 70.5643 201.437 70.8977C201.082 71.2311 200.616 71.4194 200.129 71.4252ZM200.322 68.2898C199.962 68.2946 199.617 68.4344 199.355 68.6816C199.093 68.9288 198.933 69.2654 198.908 69.6246C198.894 69.7958 198.917 69.968 198.974 70.1301C199.031 70.2921 199.121 70.4405 199.239 70.5656C199.356 70.6908 199.499 70.7899 199.657 70.8568C199.815 70.9236 199.986 70.9566 200.158 70.9537C200.517 70.9491 200.861 70.81 201.123 70.564C201.385 70.318 201.545 69.9828 201.572 69.6246C201.589 69.4509 201.57 69.2753 201.515 69.1096C201.46 68.9438 201.371 68.7916 201.253 68.6628C201.135 68.5341 200.991 68.4317 200.83 68.3626C200.67 68.2934 200.497 68.2589 200.322 68.2614V68.2898Z" fill="#E1703B"/>
<path d="M199.811 76.457L197.738 79.7003H201.487L199.811 76.457Z" fill="white"/>
<path d="M201.469 79.9468H197.72C197.681 79.9467 197.642 79.9361 197.608 79.9162C197.575 79.8962 197.547 79.8675 197.527 79.8332C197.506 79.7969 197.495 79.7557 197.495 79.7139C197.495 79.672 197.506 79.6309 197.527 79.5946L199.606 76.3513C199.628 76.3173 199.657 76.2893 199.693 76.2698C199.728 76.2504 199.768 76.2402 199.808 76.2402C199.848 76.2402 199.888 76.2504 199.923 76.2698C199.958 76.2893 199.988 76.3173 200.009 76.3513L201.713 79.5946C201.731 79.6326 201.738 79.6742 201.735 79.7158C201.731 79.7573 201.718 79.7973 201.695 79.8323C201.673 79.8673 201.642 79.8961 201.605 79.9161C201.569 79.9361 201.528 79.9466 201.486 79.9468H201.469ZM198.158 79.481H201.072L199.765 76.9363L198.158 79.481Z" fill="#E1703B"/>
<path d="M226.32 104.058C226.29 104.059 226.259 104.053 226.231 104.041C226.203 104.03 226.178 104.013 226.157 103.991C226.136 103.969 226.12 103.943 226.11 103.914C226.1 103.885 226.096 103.855 226.098 103.825L230.165 38.3287C230.17 38.2654 230.198 38.2061 230.244 38.1629C230.291 38.1196 230.352 38.0956 230.415 38.0958C230.445 38.0949 230.476 38.1004 230.504 38.1119C230.532 38.1235 230.557 38.1408 230.578 38.1628C230.599 38.1848 230.615 38.2109 230.625 38.2395C230.635 38.2681 230.639 38.2985 230.637 38.3287L226.57 103.802C226.57 103.869 226.544 103.933 226.497 103.981C226.45 104.029 226.387 104.056 226.32 104.058Z" fill="#E1703B"/>
<path d="M229.285 81.4857C229.3 81.2845 229.274 81.0822 229.207 80.8916C229.141 80.7011 229.035 80.5266 228.897 80.3791C228.759 80.2316 228.592 80.1145 228.407 80.0351C228.221 79.9557 228.021 79.9159 227.819 79.9181C227.396 79.9252 226.99 80.0897 226.682 80.3795C226.373 80.6693 226.183 81.0637 226.149 81.4857C226.134 81.6873 226.161 81.8897 226.229 82.0803C226.296 82.2708 226.402 82.4453 226.541 82.5926C226.679 82.74 226.846 82.8571 227.032 82.9364C227.218 83.0157 227.418 83.0555 227.62 83.0534C228.043 83.0449 228.447 82.8798 228.754 82.5901C229.062 82.3004 229.251 81.9069 229.285 81.4857Z" fill="white"/>
<path d="M227.609 83.2847C227.376 83.2851 227.147 83.238 226.933 83.1464C226.72 83.0548 226.528 82.9206 226.368 82.752C226.209 82.5834 226.085 82.384 226.005 82.1659C225.926 81.9479 225.891 81.7159 225.905 81.4842C225.94 80.9988 226.157 80.5445 226.511 80.2111C226.865 79.8777 227.332 79.6894 227.819 79.6836C228.051 79.6832 228.281 79.7303 228.494 79.8219C228.707 79.9135 228.9 80.0477 229.059 80.2163C229.219 80.3849 229.342 80.5844 229.422 80.8024C229.502 81.0204 229.536 81.2524 229.523 81.4842C229.487 81.9695 229.271 82.4238 228.916 82.7572C228.562 83.0907 228.095 83.2789 227.609 83.2847ZM227.802 80.1494C227.442 80.1554 227.097 80.2957 226.836 80.5427C226.574 80.7896 226.414 81.1254 226.387 81.4842C226.375 81.6555 226.398 81.8275 226.455 81.9895C226.512 82.1515 226.603 82.2998 226.72 82.4252C226.837 82.5506 226.979 82.6503 227.137 82.7181C227.295 82.7859 227.465 82.8202 227.637 82.819C227.997 82.8129 228.341 82.6726 228.603 82.4257C228.865 82.1787 229.024 81.8429 229.051 81.4842C229.064 81.3129 229.041 81.1408 228.984 80.9788C228.926 80.8169 228.836 80.6685 228.719 80.5431C228.601 80.4177 228.459 80.318 228.301 80.2502C228.144 80.1825 227.973 80.1481 227.802 80.1494Z" fill="#E1703B"/>
<path d="M231.477 46.2065C231.493 46.0048 231.466 45.802 231.399 45.6111C231.332 45.4201 231.226 45.2453 231.088 45.0977C230.949 44.9502 230.781 44.8331 230.595 44.7541C230.409 44.6751 230.208 44.6358 230.006 44.6388C229.582 44.6459 229.177 44.8104 228.868 45.1003C228.559 45.3901 228.37 45.7844 228.336 46.2065C228.321 46.4081 228.348 46.6105 228.415 46.801C228.483 46.9916 228.589 47.166 228.727 47.3134C228.865 47.4608 229.033 47.5778 229.219 47.6571C229.405 47.7365 229.605 47.7763 229.807 47.7742C230.23 47.7671 230.636 47.6026 230.945 47.3128C231.253 47.023 231.443 46.6286 231.477 46.2065Z" fill="white"/>
<path d="M229.796 48.0072C229.562 48.0127 229.33 47.9691 229.114 47.8792C228.898 47.7894 228.704 47.6553 228.543 47.4856C228.383 47.3159 228.26 47.1144 228.182 46.8941C228.104 46.6737 228.073 46.4396 228.092 46.2066C228.127 45.7208 228.343 45.2658 228.698 44.9314C229.052 44.5971 229.519 44.4076 230.006 44.4004C230.238 44.4 230.469 44.4472 230.682 44.5392C230.896 44.6311 231.089 44.7658 231.248 44.9351C231.408 45.1043 231.531 45.3044 231.611 45.5231C231.69 45.7418 231.724 45.9744 231.71 46.2066C231.673 46.6915 231.456 47.1451 231.102 47.4782C230.748 47.8114 230.282 48.0001 229.796 48.0072ZM229.994 44.8718C229.634 44.8766 229.289 45.0165 229.027 45.2637C228.765 45.5109 228.606 45.8474 228.58 46.2066C228.567 46.3779 228.589 46.55 228.646 46.7121C228.703 46.8741 228.793 47.0225 228.911 47.1476C229.028 47.2728 229.171 47.372 229.329 47.4388C229.487 47.5056 229.658 47.5387 229.83 47.5358C230.189 47.5311 230.533 47.392 230.795 47.146C231.057 46.9 231.217 46.5649 231.244 46.2066C231.257 46.0351 231.235 45.8627 231.178 45.7004C231.121 45.538 231.031 45.3893 230.913 45.2637C230.796 45.1382 230.653 45.0384 230.495 44.971C230.337 44.9035 230.166 44.8697 229.994 44.8718Z" fill="#E1703B"/>
<path d="M228.699 65.6982L227.029 62.4492H230.772L228.699 65.6982Z" fill="white"/>
<path d="M228.682 65.9335C228.642 65.9335 228.603 65.9223 228.569 65.9013C228.535 65.8802 228.507 65.8501 228.489 65.8142L226.813 62.5709C226.794 62.5352 226.784 62.4952 226.784 62.4545C226.784 62.4138 226.794 62.3738 226.813 62.338C226.836 62.302 226.866 62.2722 226.903 62.2513C226.94 62.2305 226.981 62.2193 227.024 62.2188H230.772C230.813 62.2183 230.854 62.2293 230.889 62.2503C230.924 62.2714 230.952 62.3017 230.971 62.338C230.991 62.3738 231.001 62.4138 231.001 62.4545C231.001 62.4952 230.991 62.5352 230.971 62.5709L228.904 65.8142C228.879 65.8508 228.847 65.8808 228.808 65.9016C228.769 65.9224 228.726 65.9333 228.682 65.9335ZM227.421 62.6902L228.728 65.2292L230.352 62.6902H227.421Z" fill="#E1703B"/>
<path d="M212.21 104.058C212.18 104.059 212.15 104.053 212.122 104.042C212.094 104.03 212.068 104.013 212.047 103.991C212.027 103.969 212.011 103.943 212 103.914C211.99 103.885 211.986 103.855 211.989 103.825L216.056 38.3287C216.06 38.2654 216.088 38.2061 216.135 38.1629C216.181 38.1197 216.242 38.0957 216.306 38.0958C216.336 38.0948 216.366 38.1003 216.393 38.1119C216.421 38.1235 216.446 38.1409 216.467 38.163C216.487 38.1851 216.503 38.2113 216.512 38.2399C216.521 38.2685 216.525 38.2988 216.521 38.3287L212.46 103.802C212.46 103.869 212.434 103.933 212.387 103.981C212.341 104.029 212.277 104.056 212.21 104.058Z" fill="#E1703B"/>
<path d="M216.544 59.4974C216.51 59.9195 216.321 60.3139 216.012 60.6037C215.703 60.8935 215.298 61.058 214.874 61.0651C214.672 61.0682 214.472 61.0289 214.286 60.9499C214.1 60.8708 213.932 60.7536 213.794 60.606C213.656 60.4583 213.55 60.2834 213.484 60.0925C213.418 59.9016 213.392 59.6989 213.409 59.4974C213.442 59.0763 213.631 58.6827 213.939 58.3931C214.246 58.1034 214.651 57.9383 215.073 57.9298C215.275 57.9276 215.475 57.9675 215.661 58.0468C215.847 58.1261 216.015 58.2432 216.153 58.3905C216.291 58.5379 216.397 58.7124 216.465 58.9029C216.532 59.0935 216.559 59.2959 216.544 59.4974Z" fill="white"/>
<path d="M214.863 61.3158C214.63 61.3162 214.4 61.269 214.186 61.177C213.972 61.0851 213.78 60.9503 213.62 60.7811C213.46 60.6119 213.337 60.4118 213.258 60.1931C213.178 59.9744 213.145 59.7418 213.159 59.5095C213.194 59.0242 213.411 58.5699 213.765 58.2365C214.119 57.903 214.586 57.7148 215.073 57.709C215.305 57.7086 215.535 57.7557 215.748 57.8473C215.961 57.9389 216.154 58.0731 216.313 58.2417C216.473 58.4103 216.596 58.6097 216.676 58.8278C216.756 59.0458 216.79 59.2778 216.777 59.5095C216.741 59.9954 216.525 60.4504 216.171 60.7847C215.816 61.1191 215.35 61.3086 214.863 61.3158ZM215.056 58.1747C214.696 58.1808 214.352 58.3211 214.09 58.568C213.828 58.815 213.668 59.1508 213.641 59.5095C213.629 59.6809 213.652 59.8529 213.709 60.0149C213.766 60.1768 213.856 60.3252 213.974 60.4506C214.091 60.576 214.233 60.6757 214.391 60.7435C214.549 60.8112 214.719 60.8456 214.891 60.8443C215.251 60.8383 215.595 60.698 215.857 60.4511C216.119 60.2041 216.278 59.8683 216.305 59.5095C216.319 59.338 216.296 59.1656 216.239 59.0033C216.182 58.8409 216.092 58.6922 215.975 58.5666C215.857 58.4411 215.715 58.3414 215.557 58.2739C215.398 58.2064 215.228 58.1726 215.056 58.1747Z" fill="#E1703B"/>
<path d="M214.596 90.8861C214.563 91.3072 214.374 91.7008 214.066 91.9905C213.759 92.2802 213.355 92.4453 212.932 92.4538C212.73 92.4568 212.529 92.4175 212.343 92.3385C212.156 92.2595 211.989 92.1424 211.85 91.9949C211.712 91.8473 211.606 91.6725 211.539 91.4816C211.472 91.2907 211.445 91.0878 211.461 90.8861C211.495 90.465 211.684 90.0714 211.991 89.7817C212.299 89.4921 212.703 89.327 213.125 89.3184C213.327 89.3163 213.528 89.3562 213.714 89.4355C213.899 89.5148 214.067 89.6318 214.205 89.7792C214.343 89.9266 214.45 90.1011 214.517 90.2916C214.584 90.4821 214.611 90.6846 214.596 90.8861Z" fill="white"/>
<path d="M212.915 92.6849C212.683 92.6853 212.453 92.6382 212.24 92.5466C212.027 92.455 211.834 92.3208 211.675 92.1522C211.515 91.9836 211.392 91.7842 211.312 91.5662C211.232 91.3481 211.198 91.1161 211.211 90.8844C211.246 90.3985 211.463 89.9435 211.817 89.6092C212.171 89.2748 212.638 89.0854 213.125 89.0781C213.358 89.0777 213.588 89.1249 213.802 89.2169C214.015 89.3088 214.208 89.4436 214.368 89.6128C214.527 89.782 214.651 89.9821 214.73 90.2008C214.809 90.4195 214.843 90.6521 214.829 90.8844C214.794 91.3697 214.577 91.824 214.223 92.1574C213.868 92.4909 213.402 92.6791 212.915 92.6849ZM213.108 89.5496C212.748 89.5544 212.403 89.6942 212.141 89.9414C211.879 90.1886 211.719 90.5251 211.694 90.8844C211.681 91.0554 211.704 91.2272 211.762 91.3889C211.819 91.5505 211.909 91.6985 212.027 91.8235C212.144 91.9485 212.286 92.0476 212.444 92.1148C212.602 92.1819 212.772 92.2155 212.943 92.2135C213.303 92.2088 213.647 92.0698 213.909 91.8238C214.171 91.5777 214.331 91.2426 214.358 90.8844C214.371 90.7129 214.349 90.5404 214.292 90.3781C214.235 90.2158 214.145 90.0671 214.027 89.9415C213.91 89.8159 213.767 89.7162 213.609 89.6487C213.451 89.5812 213.28 89.5475 213.108 89.5496Z" fill="#E1703B"/>
<path d="M216.102 41.3887L214.023 44.6376H217.772L216.102 41.3887Z" fill="white"/>
<path d="M217.754 44.8702H214.011C213.97 44.8706 213.93 44.8597 213.895 44.8386C213.86 44.8176 213.831 44.7872 213.812 44.7509C213.793 44.7151 213.783 44.6751 213.783 44.6345C213.783 44.5938 213.793 44.5538 213.812 44.518L215.885 41.2747C215.908 41.2407 215.938 41.2128 215.974 41.1935C216.009 41.1742 216.049 41.1641 216.09 41.1641C216.131 41.1641 216.17 41.1742 216.206 41.1935C216.242 41.2128 216.272 41.2407 216.294 41.2747L217.964 44.518C217.985 44.5532 217.996 44.5935 217.996 44.6345C217.996 44.6755 217.985 44.7157 217.964 44.7509C217.941 44.7859 217.91 44.8149 217.874 44.8357C217.837 44.8564 217.796 44.8682 217.754 44.8702ZM214.448 44.3987H217.379L216.067 41.8882L214.448 44.3987Z" fill="#E1703B"/>
<path d="M63.3551 58.2552L62.7871 61.0214L62.2191 63.8614C61.8443 65.7472 61.5262 67.6329 61.2365 69.4846C61.0888 70.4104 60.9752 71.3249 60.8787 72.2281C60.7821 73.1312 60.6969 74.0059 60.6515 74.8522C60.612 75.6242 60.612 76.3977 60.6515 77.1696C60.6515 77.8342 60.7991 78.4022 60.7707 78.4647L60.3902 77.8115C60.2198 77.6411 59.9074 77.482 59.8563 77.5559C59.8051 77.6297 60.0039 77.7604 60.3675 77.8569C60.8354 77.9677 61.3127 78.0343 61.7931 78.0557C62.4032 78.0736 63.0137 78.0585 63.6221 78.0103C65.0004 77.897 66.3714 77.7074 67.7287 77.4423C68.4387 77.306 69.1601 77.164 69.8758 77.0049L72.0001 76.5448L72.2841 76.4824C72.9492 76.3401 73.643 76.4295 74.2503 76.7356C74.8576 77.0418 75.3421 77.5464 75.6232 78.1657C75.9043 78.7851 75.9653 79.4819 75.796 80.1406C75.6267 80.7994 75.2373 81.3805 74.6924 81.7875L73.6303 82.5713L72.5851 83.287C71.8695 83.7414 71.1481 84.1844 70.3983 84.5934C68.8595 85.4423 67.2521 86.1605 65.5931 86.7405C64.6871 87.0449 63.7633 87.2934 62.8269 87.4845C61.7638 87.7033 60.6802 87.8061 59.595 87.7912C58.235 87.7757 56.8886 87.518 55.619 87.0301C53.982 86.3758 52.564 85.271 51.5294 83.8436C51.4202 83.6876 51.3215 83.5244 51.234 83.3552L51.1488 83.1905C50.4404 81.7572 49.9521 80.2253 49.7004 78.6465C49.491 77.4032 49.3695 76.1467 49.3369 74.8863C49.2953 73.7011 49.2953 72.5461 49.3369 71.4215C49.3786 70.2969 49.4562 69.1893 49.5698 68.0987C49.7629 65.9176 50.0867 63.7933 50.4559 61.686C50.649 60.6352 50.8421 59.5901 51.0807 58.5506C51.1943 58.0281 51.3079 57.5055 51.4385 56.9829L51.8588 55.3755C52.2516 53.8784 53.2125 52.5933 54.5375 51.7934C55.8626 50.9934 57.4473 50.7416 58.955 51.0913C60.4628 51.4411 61.7747 52.3649 62.6123 53.6665C63.4498 54.9681 63.7468 56.545 63.4403 58.0621L63.3551 58.2552Z" fill="#E1703B"/>
<path opacity="0.2" d="M63.3551 58.2552L62.7871 61.0214L62.2191 63.8614C61.8443 65.7472 61.5262 67.6329 61.2365 69.4846C61.0888 70.4104 60.9752 71.3249 60.8787 72.2281C60.7821 73.1312 60.6969 74.0059 60.6515 74.8522C60.612 75.6242 60.612 76.3977 60.6515 77.1696C60.6515 77.8342 60.7991 78.4022 60.7707 78.4647L60.3902 77.8115C60.2198 77.6411 59.9074 77.482 59.8563 77.5559C59.8051 77.6297 60.0039 77.7604 60.3675 77.8569C60.8354 77.9677 61.3127 78.0343 61.7931 78.0557C62.4032 78.0736 63.0137 78.0585 63.6221 78.0103C65.0004 77.897 66.3714 77.7074 67.7287 77.4423C68.4387 77.306 69.1601 77.164 69.8758 77.0049L72.0001 76.5448L72.2841 76.4824C72.9492 76.3401 73.643 76.4295 74.2503 76.7356C74.8576 77.0418 75.3421 77.5464 75.6232 78.1657C75.9043 78.7851 75.9653 79.4819 75.796 80.1406C75.6267 80.7994 75.2373 81.3805 74.6924 81.7875L73.6303 82.5713L72.5851 83.287C71.8695 83.7414 71.1481 84.1844 70.3983 84.5934C68.8595 85.4423 67.2521 86.1605 65.5931 86.7405C64.6871 87.0449 63.7633 87.2934 62.8269 87.4845C61.7638 87.7033 60.6802 87.8061 59.595 87.7912C58.235 87.7757 56.8886 87.518 55.619 87.0301C53.982 86.3758 52.564 85.271 51.5294 83.8436C51.4202 83.6876 51.3215 83.5244 51.234 83.3552L51.1488 83.1905C50.4404 81.7572 49.9521 80.2253 49.7004 78.6465C49.491 77.4032 49.3695 76.1467 49.3369 74.8863C49.2953 73.7011 49.2953 72.5461 49.3369 71.4215C49.3786 70.2969 49.4562 69.1893 49.5698 68.0987C49.7629 65.9176 50.0867 63.7933 50.4559 61.686C50.649 60.6352 50.8421 59.5901 51.0807 58.5506C51.1943 58.0281 51.3079 57.5055 51.4385 56.9829L51.8588 55.3755C52.2516 53.8784 53.2125 52.5933 54.5375 51.7934C55.8626 50.9934 57.4473 50.7416 58.955 51.0913C60.4628 51.4411 61.7747 52.3649 62.6123 53.6665C63.4498 54.9681 63.7468 56.545 63.4403 58.0621L63.3551 58.2552Z" fill="black"/>
<path d="M48.9791 203.532C48.9791 203.532 43.6058 198.659 43.7365 197.114L39.272 194.842L36.6138 199.431L39.0789 200.811L39.7605 200.59L40.2092 201.368C42.4358 202.504 47.2979 204.725 48.9962 204.663C49.0969 204.491 49.1485 204.294 49.1455 204.095C49.1425 203.896 49.085 203.701 48.9791 203.532Z" fill="#263238"/>
<path d="M49.3653 146.186C52.6143 122.898 51.5521 108.772 54.9658 97.3036L76.0954 95.5996C76.0954 95.5996 66.7291 132.52 62.4634 147.89C58.1977 163.26 44.7247 198.112 44.7247 198.112L38.8459 195.102C38.8459 195.102 43.6456 164.191 49.3653 146.186Z" fill="#263238"/>
<path opacity="0.2" d="M66.5986 112.816C65.1615 116.139 62.3556 137.479 62.367 148.135C62.367 148.061 62.4124 147.976 62.4351 147.896C63.9403 142.494 66.0817 134.423 68.2174 126.238L66.5986 112.816Z" fill="black"/>
<path d="M82.9288 204.293C82.9288 204.293 74.1646 202.305 73.7613 200.885H68.2006L67.7405 206.184H70.8304L71.3984 205.696L72.0914 206.184C74.5906 206.184 81.8155 206.184 83.3718 205.275C83.3832 204.469 82.9288 204.293 82.9288 204.293Z" fill="#263238"/>
<path d="M68.0864 146.84C63.4458 115.31 63.4458 95.7882 63.4458 95.7882L84.121 95.4531C84.121 95.4531 81.6388 133.055 80.7755 148.805C79.8837 165.181 74.7717 201.226 74.7717 201.226H67.5922C67.5922 201.226 65.8882 167.089 68.0864 146.84Z" fill="#263238"/>
<path d="M65.8432 36.5918C64.8605 42.7773 63.077 46.0944 61.8672 49.1673C63.9517 51.1099 68.4162 53.5125 72.9205 53.45C77.4247 53.3876 76.6068 50.3374 75.397 48.764C72.165 47.1339 72.0401 45.4867 72.8296 44.044L65.8432 36.5918Z" fill="#7F3E3B"/>
<path d="M58.1184 50.041C58.1184 50.041 60.9925 46.6614 62.1285 46.0934C63.2645 45.5254 71.8583 46.6614 73.8861 47.0704C75.9138 47.4794 78.3846 50.4784 78.3846 50.4784L58.1184 50.041Z" fill="#263238"/>
<path d="M80.0883 36.0736C79.9974 36.4825 80.1394 36.8574 80.4063 36.9142C80.6733 36.971 80.9743 36.687 81.0538 36.278C81.1334 35.8691 81.0027 35.4942 80.7358 35.4374C80.4688 35.3806 80.1678 35.6419 80.0883 36.0736Z" fill="#263238"/>
<path d="M79.9237 36.6387C80.1321 37.9871 80.5259 39.3002 81.0937 40.5408C80.219 41.0577 79.0603 40.484 79.0603 40.484L79.9237 36.6387Z" fill="#630F0F"/>
<path d="M81.4854 33.7304C81.4507 33.7498 81.4116 33.76 81.3718 33.76C81.332 33.76 81.2929 33.7498 81.2582 33.7304C80.9806 33.5981 80.6754 33.5343 80.3681 33.5442C80.0607 33.554 79.7602 33.6374 79.4917 33.7872C79.4654 33.8052 79.4357 33.8177 79.4045 33.824C79.3732 33.8303 79.341 33.8302 79.3098 33.8239C79.2785 33.8175 79.2489 33.805 79.2226 33.787C79.1963 33.769 79.1738 33.7459 79.1566 33.719C79.1385 33.6923 79.1259 33.6621 79.1195 33.6304C79.1132 33.5988 79.1132 33.5661 79.1195 33.5344C79.1258 33.5027 79.1384 33.4726 79.1565 33.4458C79.1745 33.419 79.1978 33.396 79.2248 33.3782C79.56 33.1826 79.9377 33.0711 80.3255 33.0533C80.7132 33.0355 81.0995 33.1119 81.4513 33.276C81.4809 33.2889 81.5076 33.3076 81.5299 33.3309C81.5522 33.3542 81.5697 33.3817 81.5813 33.4118C81.5929 33.4419 81.5985 33.474 81.5976 33.5063C81.5967 33.5386 81.5895 33.5703 81.5763 33.5998C81.5637 33.6533 81.5312 33.7 81.4854 33.7304Z" fill="#263238"/>
<path d="M66.5588 31.9274C65.7465 36.994 65.0081 39.9192 66.9677 43.0318C69.91 47.7121 76.6237 46.7579 78.9355 42.0208C81.0257 37.7608 82.0084 30.1893 77.5439 27.1448C76.5552 26.4704 75.4116 26.0577 74.22 25.9453C73.0285 25.833 71.8279 26.0246 70.7305 26.5024C69.6332 26.9801 68.6749 27.7284 67.9453 28.6771C67.2158 29.6259 66.7387 30.7442 66.5588 31.9274Z" fill="#7F3E3B"/>
<path d="M75.7662 36.7785C79.8672 37.6646 78.6744 32.598 77.6918 32.0925C80.1569 33.5693 81.7927 31.8539 81.6678 30.309C83.5535 29.9966 83.457 26.901 82.1619 26.8044C81.344 24.6631 77.5214 22.8625 76.8114 24.1859C74.7495 21.789 69.2286 22.1979 70.0294 23.936C67.9335 23.5271 63.469 23.7145 64.9629 26.8726C61.7764 27.2815 61.9298 32.7343 64.0086 33.3023C61.8332 34.5065 63.9405 38.6188 64.8777 41.1975C65.8149 43.7763 75.1528 41.4815 75.7662 36.7785Z" fill="#263238"/>
<path d="M73.4318 36.2612C73.2555 37.3408 73.495 38.447 74.102 39.3569C74.9029 40.4929 76.1411 39.7829 76.6239 38.414C77.0556 37.1871 77.1579 35.1196 76.0162 34.5005C74.8745 33.8813 73.6419 34.8753 73.4318 36.2612Z" fill="#7F3E3B"/>
<path d="M58.4082 49.4736C65.3946 48.6159 75.3062 48.6898 81.8836 49.8371C83.5146 50.1249 85.004 50.9458 86.1183 52.171C87.2326 53.3963 87.9087 54.9568 88.0407 56.6077C88.8586 66.6443 86.6378 84.1841 84.7179 101.843C69.2399 107.035 53.529 101.769 53.529 101.769C53.1826 98.208 55.1024 86.5356 56.3009 80.3047C55.4205 73.8749 53.1882 66.5079 51.933 57.9595C51.7901 56.9757 51.8451 55.9732 52.0948 55.0109C52.3444 54.0486 52.7836 53.1458 53.3867 52.3554C53.9898 51.5651 54.7446 50.903 55.6069 50.4082C56.4691 49.9133 57.4215 49.5956 58.4082 49.4736Z" fill="#E1703B"/>
<path opacity="0.2" d="M79.4297 63.5254C80.4862 69.5689 83.8317 76.7712 86.8932 81.5367C87.3135 77.3619 87.6657 73.3859 87.8872 69.7166L79.4297 63.5254Z" fill="black"/>
<path d="M130.601 49.5234C128.341 48.0878 125.604 47.6086 122.991 48.1912C120.378 48.7739 118.103 50.3707 116.668 52.6303C115.232 54.89 114.753 57.6274 115.336 60.2403C115.918 62.8533 117.515 65.1278 119.775 66.5634C118.764 67.9266 115.799 71.931 114.896 73.4759C113.76 75.3447 113.192 77.0259 113.975 77.4917C114.759 77.9575 115.952 76.634 117.06 74.7653C117.98 73.226 120.093 68.7161 120.803 67.1711C123.136 68.3909 125.853 68.6507 128.375 67.8952C130.898 67.1396 133.025 65.4286 134.303 63.1269C135.581 60.8253 135.909 58.1153 135.218 55.5749C134.526 53.0346 132.869 50.8651 130.601 49.5291V49.5234ZM133.026 62.718C132.133 64.2176 130.815 65.4187 129.24 66.1695C127.664 66.9203 125.901 67.1871 124.174 66.9361C122.446 66.6852 120.832 65.9277 119.535 64.7595C118.238 63.5913 117.317 62.0649 116.887 60.3731C116.458 58.6813 116.54 56.9002 117.122 55.2548C117.705 53.6095 118.762 52.1738 120.161 51.1293C121.559 50.0848 123.236 49.4784 124.979 49.3866C126.722 49.2949 128.453 49.722 129.953 50.6139C130.951 51.2061 131.822 51.9891 132.516 52.9182C133.211 53.8473 133.715 54.9043 134 56.0286C134.286 57.1529 134.347 58.3225 134.179 59.4703C134.012 60.6182 133.62 61.7218 133.026 62.718Z" fill="#E1703B"/>
<path opacity="0.2" d="M133.441 62.9643C132.5 64.5473 131.111 65.8156 129.449 66.609C127.787 67.4024 125.928 67.6852 124.105 67.4216C122.283 67.158 120.579 66.3599 119.211 65.1281C117.842 63.8964 116.869 62.2864 116.415 60.5017C115.962 58.7171 116.047 56.838 116.662 55.1021C117.276 53.3662 118.391 51.8515 119.867 50.7495C121.342 49.6475 123.111 49.0078 124.95 48.9112C126.789 48.8147 128.615 49.2656 130.197 50.2071C131.248 50.8314 132.166 51.6567 132.898 52.6359C133.63 53.615 134.162 54.7288 134.463 55.9136C134.764 57.0983 134.829 58.3309 134.653 59.5407C134.478 60.7505 134.066 61.9139 133.441 62.9643Z" fill="#E1703B"/>
<path d="M118.957 71.8012L117.724 70.7107C117.496 70.5074 117.221 70.3621 116.925 70.287C116.628 70.2118 116.318 70.2091 116.02 70.279L113.18 70.9265C112.625 71.0537 112.109 71.3118 111.674 71.6794C111.239 72.047 110.899 72.5134 110.681 73.0395L110.408 73.6983C112.323 75.6466 115.827 76.3452 115.827 76.3452L116.81 76.6519C117.008 76.7214 117.219 76.7505 117.429 76.7377C117.639 76.7249 117.845 76.6704 118.033 76.5773C118.222 76.4842 118.39 76.3545 118.529 76.1957C118.667 76.0369 118.772 75.8521 118.838 75.6523L119.479 73.7267C119.585 73.3893 119.591 73.0289 119.499 72.6879C119.406 72.3468 119.218 72.0392 118.957 71.8012Z" fill="#7F3E3B"/>
<path d="M87.7393 54.5515L88.8753 57.045L90.0737 59.5897C90.8746 61.2937 91.7209 62.9352 92.5673 64.5427C92.9951 65.3454 93.4344 66.1236 93.885 66.8771C94.3224 67.6326 94.7711 68.3596 95.2255 69.0299C95.6404 69.6426 96.0859 70.234 96.5603 70.802C96.9579 71.2905 97.3669 71.6426 97.3782 71.6994L96.6739 71.4098C97.4526 71.7722 98.2929 71.9842 99.1504 72.0346C100.354 72.139 101.563 72.1542 102.769 72.08C104.064 72.0232 105.398 71.8869 106.745 71.7278C107.42 71.6426 108.108 71.5631 108.795 71.4609L110.828 71.1883L111.107 71.1485C111.777 71.0589 112.458 71.1992 113.038 71.5466C113.618 71.8939 114.063 72.4277 114.3 73.0608C114.538 73.6938 114.553 74.3887 114.345 75.0317C114.136 75.6748 113.715 76.2282 113.152 76.6013L112.118 77.2829L111.101 77.8963C110.414 78.2882 109.721 78.6688 109.005 79.0323C108.289 79.3958 107.568 79.7196 106.824 80.0263C106.08 80.333 105.313 80.5943 104.552 80.8727C102.909 81.4179 101.215 81.7984 99.4969 82.0087C97.4358 82.2843 95.3409 82.157 93.3284 81.6338C93.1822 81.5927 93.0397 81.5395 92.9024 81.4747L92.6297 81.3441C91.1979 80.6563 89.883 79.7478 88.7333 78.6518C87.822 77.7998 86.9717 76.885 86.1886 75.914C84.7847 74.1816 83.5054 72.3518 82.3603 70.4385C81.2243 68.6038 80.236 66.7408 79.2988 64.8721C78.8387 63.9292 78.3786 62.992 77.9583 62.0321C77.7481 61.555 77.5323 61.0722 77.3335 60.5894L76.7201 59.0728C76.1326 57.6319 76.1334 56.0181 76.7221 54.5777C77.3109 53.1373 78.4407 51.9851 79.8693 51.3682C81.2978 50.7513 82.9113 50.7189 84.3635 51.2779C85.8157 51.8369 86.9909 52.9428 87.637 54.3584L87.7393 54.5515Z" fill="#E1703B"/>
<path d="M206.099 184.935C205.224 178.068 209.052 172.53 212.756 167.168C217.112 160.863 221.616 154.349 218.952 145.403C218.226 142.953 217.006 140.678 215.368 138.717C213.78 142.793 211.073 146.337 207.558 148.941C202.617 152.622 196.766 153.781 192.694 151.9C190.393 150.844 187.582 148.35 187.156 142.511C186.735 136.536 190.206 132.287 196.431 131.151C202.657 130.015 210.217 132.287 215.175 137.632C216.428 133.935 216.786 129.993 216.22 126.13L216.788 126.051C217.387 130.108 216.983 134.25 215.613 138.115C217.402 140.195 218.726 142.633 219.498 145.266C222.241 154.468 217.657 161.102 213.221 167.515C209.41 173.03 205.837 178.239 206.661 184.884L206.099 184.935ZM199.663 131.43C198.614 131.428 197.567 131.519 196.534 131.702C190.621 132.776 187.326 136.814 187.718 142.455C188.025 146.857 189.825 149.941 192.932 151.367C196.835 153.161 202.446 152.025 207.223 148.47C210.728 145.875 213.41 142.326 214.948 138.246C213.008 136.118 210.648 134.414 208.018 133.241C205.387 132.068 202.543 131.451 199.663 131.43Z" fill="#263238"/>
<path d="M216.732 128.037C212.233 124.022 211.716 118.722 214.352 117.603C218.004 116.053 219.367 122.505 216.732 128.037Z" fill="#E1703B"/>
<path d="M213.319 166.849C210.104 161.737 209.911 155.364 213.835 154.921C217.408 154.501 218.192 160.556 213.319 166.849Z" fill="#E1703B"/>
<path d="M216.834 129.724C216.215 125.912 218.089 123.072 219.85 123.578C222.287 124.277 220.384 128.031 216.834 129.724Z" fill="#E1703B"/>
<path d="M207.991 148.144C206.02 143.896 207.281 139.959 209.507 139.971C212.586 139.993 211.569 145.009 207.991 148.144Z" fill="#E1703B"/>
<path d="M200.424 131.201C196.369 131.888 193.324 129.906 193.853 128.026C194.585 125.419 198.601 127.441 200.424 131.201Z" fill="#E1703B"/>
<path d="M200.424 131.202C197.936 129.873 197.584 127.896 198.857 127.368C200.646 126.635 201.498 129.015 200.424 131.202Z" fill="#E1703B"/>
<path d="M219.975 148.105C218.993 145.452 220.032 143.731 221.344 144.192C223.167 144.833 222.23 147.174 219.975 148.105Z" fill="#E1703B"/>
<path d="M188.071 146.249C185.259 146.556 183.845 145.113 184.611 143.977C185.679 142.353 187.724 143.835 188.071 146.249Z" fill="#E1703B"/>
<path d="M224.111 184.86L222.771 194.721L223.334 194.797L224.674 184.936L224.111 184.86Z" fill="#E1703B"/>
<path d="M222.403 197.227L221.755 201.994L222.318 202.071L222.966 197.304L222.403 197.227Z" fill="#E1703B"/>
<path d="M195.392 180.613L198.681 204.662C198.738 205.082 198.946 205.467 199.265 205.746C199.585 206.025 199.995 206.178 200.419 206.179H218.174C218.598 206.178 219.008 206.025 219.327 205.746C219.647 205.467 219.855 205.082 219.912 204.662L223.201 180.613C223.234 180.365 223.214 180.113 223.142 179.874C223.07 179.634 222.947 179.413 222.783 179.225C222.618 179.037 222.415 178.886 222.188 178.782C221.96 178.679 221.713 178.625 221.463 178.625H197.096C196.849 178.63 196.605 178.687 196.382 178.793C196.158 178.898 195.96 179.05 195.799 179.238C195.638 179.425 195.518 179.645 195.448 179.882C195.378 180.119 195.359 180.368 195.392 180.613Z" fill="#E1703B"/>
<defs>
<clipPath id="clip0_2717_7683">
<rect width="15.7038" height="15.7038" fill="white" transform="translate(145.376 44)"/>
</clipPath>
</defs>
</svg>
